/* XPM */
static char *result[] = {
/* columns rows colors chars-per-pixel */
"64 64 78 1 ",
"  c black",
". c #010101",
"X c #020202",
"o c gray1",
"O c #040404",
"+ c #060606",
"@ c #070707",
"# c gray3",
"$ c #090909",
"% c gray4",
"& c #0B0B0B",
"* c #0C0C0C",
"= c gray5",
"- c gray6",
"; c #101010",
": c gray7",
"> c #131313",
", c gray8",
"< c #151515",
"1 c #161616",
"2 c gray9",
"3 c #191919",
"4 c gray10",
"5 c #1B1B1B",
"6 c gray11",
"7 c #1E1E1E",
"8 c gray12",
"9 c #202020",
"0 c #222222",
"q c #232323",
"w c gray14",
"e c gray15",
"r c #272727",
"t c #282828",
"y c #2A2A2A",
"u c #2C2C2C",
"i c #2D2D2D",
"p c #2F2F2F",
"a c gray19",
"s c #323232",
"d c gray20",
"f c #343434",
"g c gray21",
"h c gray22",
"j c #3C3C3C",
"k c #3E3E3E",
"l c gray25",
"z c #414141",
"x c gray26",
"c c #444444",
"v c gray27",
"b c #464646",
"n c gray29",
"m c #4B4B4B",
"M c gray30",
"N c #4E4E4E",
"B c gray31",
"V c #505050",
"C c #515151",
"Z c gray32",
"A c gray33",
"S c #555555",
"D c #565656",
"F c gray34",
"G c #585858",
"H c gray35",
"J c #5A5A5A",
"K c #5B5B5B",
"L c gray36",
"P c #5D5D5D",
"I c #5F5F5F",
"U c #606060",
"Y c gray38",
"T c #626262",
"R c gray39",
"E c #646464",
"W c #656565",
"Q c gray40",
/* pixels */
"QQQQQQQQQQQQQQQQQQQQQQQQQQQQQQQQQQQQQQQQQQQQQQQQQQQQQQQQQQQQQQQQ",
"QQQQQQQQQQQQQQQQQQQQQQQQQQQQQQQQQQQQQQQQQQQQQQQQQQQQQQQQQQQQQQQQ",
"QQQQQQQQQQQQQQQQQQQQQQQQQQQQQQQQQQQQQQQQQQQQQQQQQQQQQQQQQQQQQQQQ",
"QQQQQQQQQQQQQQQQQQQQQQQQQQQQQQQQQQQQQQQQQQQQQQQQQQQQQQQQQQQQQQQQ",
"QQQQQQQQQQQQQQQQQQQQQQQQQQQQQQQQQQQQQQQQQQQQQQQQQQQQQQQQQQQQQQQQ",
"QQQQQQQQQQQQQQQQQQQQQQQQQQQQQQQQQQQQQQQQQQQQQQQQQQQQQQQQQQQQQQQQ",
"QQQQQQQQQQQQQQQQQQQQQQQQQQQQQQQQQQQQQQQQQQQQQQQQQQQQQQQQQQQQQQQQ",
"QQQQQQQQQQQQQQQQQQQQQQQQQQQQQQQQQQQQQQQQQQQQQQQQQQQQQQQQQQQQQQQQ",
"QQQQQQQQQQQQQQQQQQQQQQQQQQQQQQQQQQQQQQQQQQQQQQQQQQQQQQQQQQQQQQQQ",
"QQQQQQQQQQQQQQQQQQQQQQQQQQQQQQQQQQQQQQQQQQQQQQQQQQQQQQQQQQQQQQQQ",
"QQQQQQQQQQQQQQQQQQQQQQQQQQQQQQQQQQQQQQQQQQQQQQQQQQQQQQQQQQQQQQQQ",
"QQQQQQQQQQQNmmmmmmmmmmIQQQQQQQQQQQQQQQQQQQQQQQQQTmmmmmmmVQQQQQQQ",
"QQQQQQQQQQQ*          3EQQQQQQQQQQQQQQQQQQQQQQQQH       ,QQQQQQQ",
"QQQQQQQQQQQ*           eQQQQQQQQQQQQQQQQQQQQQQQQH       ,QQQQQQQ",
"QQQQQQQQQQQ*            gQQQQQQQQQQQQQQQQQQQQQQQH       ,QQQQQQQ",
"QQQQQQQQQQQ*             cQQQQQQQQQQQQQQQQQQQQQQH       ,QQQQQQQ",
"QQQQQQQQQQQ*             oVQQQQQQQQQQQQQQQQQQQQQH       ,QQQQQQQ",
"QQQQQQQQQQQ*              $JQQQQQQQQQQQQQQQQQQQQH       ,QQQQQQQ",
"QQQQQQQQQQQ*       f       :YQQQQQQQQQQQQQQQQQQQH       ,QQQQQQQ",
"QQQQQQQQQQQ*       Yy       7EQQQQQQQQQQQQQQQQQQH       ,QQQQQQQ",
"QQQQQQQQQQQ*       YE6       uQQQQQQQQQQQQQQQQQQH       ,QQQQQQQ",
"QQQQQQQQQQQ*       YQU;       jQQQQQQQQQQQQQQQQQH       ,QQQQQQQ",
"QQQQQQQQQQQ*       YQQH#      .nQQQQQQQQQQQQQQQQH       ,QQQQQQQ",
"QQQQQQQQQQQ*       YQQQBo      +AQQQQQQQQQQQQQQQH       ,QQQQQQQ",
"QQQQQQQQQQQ*       YQQQQx       *PQQQQQQQQQQQQQQH       ,QQQQQQQ",
"QQQQQQQQQQQ*       YQQQQQd       1TQQQQQQQQQQQQQH       ,QQQQQQQ",
"QQQQQQQQQQQ*       YQQQQQQw       qWQQQQQQQQQQQQH       ,QQQQQQQ",
"QQQQQQQQQQQ*       YQQQQQQR2       sQQQQQQQQQQQQH       ,QQQQQQQ",
"QQQQQQQQQQQ*       YQQQQQQQP=       zQQQQQQQQQQQH       ,QQQQQQQ",
"QQQQQQQQQQQ*       YQQQQQQQQS+      XNQQQQQQQQQQH       ,QQQQQQQ",
"QQQQQQQQQQQ*       YQQQQQQQQQn.      #GQQQQQQQQQH       ,QQQQQQQ",
"QQQQQQQQQQQ*       YQQQQQQQQQQj       ;UQQQQQQQQH       ,QQQQQQQ",
"QQQQQQQQQQQ*       YQQQQQQQQQQQi       5EQQQQQQQH       ,QQQQQQQ",
"QQQQQQQQQQQ*       YQQQQQQQQQQQW8       tQQQQQQQH       ,QQQQQQQ",
"QQQQQQQQQQQ*       YQQQQQQQQQQQQY>       hQQQQQQH       ,QQQQQQQ",
"QQQQQQQQQQQ*       YQQQQQQQQQQQQQJ%       bQQQQQH       ,QQQQQQQ",
"QQQQQQQQQQQ*       YQQQQQQQQQQQQQQCO      OZQQQQH       ,QQQQQQQ",
"QQQQQQQQQQQ*       YQQQQQQQQQQQQQQQv       &KQQQH       ,QQQQQQQ",
"QQQQQQQQQQQ*       YQQQQQQQQQQQQQQQQg       ,TQQH       ,QQQQQQQ",
"QQQQQQQQQQQ*       YQQQQQQQQQQQQQQQQQr       9WQH       ,QQQQQQQ",
"QQQQQQQQQQQ*       YQQQQQQQQQQQQQQQQQE4       pQH       ,QQQQQQQ",
"QQQQQQQQQQQ*       YQQQQQQQQQQQQQQQQQQI-       kH       ,QQQQQQQ",
"QQQQQQQQQQQ*       YQQQQQQQQQQQQQQQQQQQF@      Xk       ,QQQQQQQ",
"QQQQQQQQQQQ*       YQQQQQQQQQQQQQQQQQQQQMX      X       ,QQQQQQQ",
"QQQQQQQQQQQ*       YQQQQQQQQQQQQQQQQQQQQQl              ,QQQQQQQ",
"QQQQQQQQQQQ*       YQQQQQQQQQQQQQQQQQQQQQQa             ,QQQQQQQ",
"QQQQQQQQQQQ*       YQQQQQQQQQQQQQQQQQQQQQQW0            ,QQQQQQQ",
"QQQQQQQQQQQ*       YQQQQQQQQQQQQQQQQQQQQQQQT<           ,QQQQQQQ",
"QQQQQQQQQQQ*       YQQQQQQQQQQQQQQQQQQQQQQQQL*          ,QQQQQQQ",
"QQQQQQQQQQQxjjjjjjjEQQQQQQQQQQQQQQQQQQQQQQQQQDjjjjjjjjjjvQQQQQQQ",
"QQQQQQQQQQQQQQQQQQQQQQQQQQQQQQQQQQQQQQQQQQQQQQQQQQQQQQQQQQQQQQQQ",
"QQQQQQQQQQQQQQQQQQQQQQQQQQQQQQQQQQQQQQQQQQQQQQQQQQQQQQQQQQQQQQQQ",
"QQQQQQQQQQQQQQQQQQQQQQQQQQQQQQQQQQQQQQQQQQQQQQQQQQQQQQQQQQQQQQQQ",
"QQQQQQQQQQQQQQQQQQQQQQQQQQQQQQQQQQQQQQQQQQQQQQQQQQQQQQQQQQQQQQQQ",
"QQQQQQQQQQQQQQQQQQQQQQQQQQQQQQQQQQQQQQQQQQQQQQQQQQQQQQQQQQQQQQQQ",
"QQQQQQQQQQQQQQQQQQQQQQQQQQQQQQQQQQQQQQQQQQQQQQQQQQQQQQQQQQQQQQQQ",
"QQQQQQQQQQQQQQQQQQQQQQQQQQQQQQQQQQQQQQQQQQQQQQQQQQQQQQQQQQQQQQQQ",
"QQQQQQQQQQQQQQQQQQQQQQQQQQQQQQQQQQQQQQQQQQQQQQQQQQQQQQQQQQQQQQQQ",
"QQQQQQQQQQQQQQQQQQQQQQQQQQQQQQQQQQQQQQQQQQQQQQQQQQQQQQQQQQQQQQQQ",
"QQQQQQQQQQQQQQQQQQQQQQQQQQQQQQQQQQQQQQQQQQQQQQQQQQQQQQQQQQQQQQQQ",
"QQQQQQQQQQQQQQQQQQQQQQQQQQQQQQQQQQQQQQQQQQQQQQQQQQQQQQQQQQQQQQQQ",
"QQQQQQQQQQQQQQQQQQQQQQQQQQQQQQQQQQQQQQQQQQQQQQQQQQQQQQQQQQQQQQQQ",
"QQQQQQQQQQQQQQQQQQQQQQQQQQQQQQQQQQQQQQQQQQQQQQQQQQQQQQQQQQQQQQQQ",
"QQQQQQQQQQQQQQQQQQQQQQQQQQQQQQQQQQQQQQQQQQQQQQQQQQQQQQQQQQQQQQQQ"
};
