/* XPM */
static char *result[] = {
/* columns rows colors chars-per-pixel */
"64 64 22 1 ",
"  c black",
". c #010101",
"X c #060606",
"o c #0C0C0C",
"O c #101010",
"+ c gray9",
"@ c #1E1E1E",
"# c gray12",
"$ c #2C2C2C",
"% c #2D2D2D",
"& c gray21",
"* c #3C3C3C",
"= c #484848",
"- c #505050",
"; c #535353",
": c #5D5D5D",
"> c gray37",
", c #5F5F5F",
"< c #606060",
"1 c #626262",
"2 c #646464",
"3 c gray40",
/* pixels */
"3333333333333333333333333333333333333333333333333333333333333333",
"3333333333333333333333333333333333333333333333333333333333333333",
"3333333333333333333333333333333333333333333333333333333333333333",
"3333333333333333333333333333333333333333333333333333333333333333",
"3333333333333333333333333333333333333333333333333333333333333333",
"3333333333333333333333333333333333333333333333333333333333333333",
"3333333333333333333333333333333333333333333333333333333333333333",
"3333333333333333333333333333333333333333333333333333333333333333",
"3333333333333333333333333333333333333333333333333333333333333333",
"3333333333333333333333333333333333333333333333333333333333333333",
"3333333333333333333333333333333333333333333333333333333333333333",
"333333333332<<<<<<<<<<<<<<<<<<<<<<<<<<<<<<<<<<<<<<<<233333333333",
"33333333333-                                        =33333333333",
"33333333333-                                        =33333333333",
"33333333333-                                        =33333333333",
"33333333333-                                        =33333333333",
"33333333333-        $;;;;;;;;;;;;;;;;;;;;;;;;;;;;;;;<33333333333",
"33333333333-        &3333333333333333333333333333333333333333333",
"33333333333-        &3333333333333333333333333333333333333333333",
"33333333333-        &3333333333333333333333333333333333333333333",
"33333333333-        &3333333333333333333333333333333333333333333",
"33333333333-        &3333333333333333333333333333333333333333333",
"33333333333-        &3333333333333333333333333333333333333333333",
"33333333333-        &3333333333333333333333333333333333333333333",
"33333333333-        &3333333333333333333333333333333333333333333",
"33333333333-        &3333333333333333333333333333333333333333333",
"33333333333-        &3333333333333333333333333333333333333333333",
"33333333333-        O@@@@@@@@@@@@@@@@@@@@@@@@@@@@@#3333333333333",
"33333333333-                                      .3333333333333",
"33333333333-                                      .3333333333333",
"33333333333-                                      .3333333333333",
"33333333333-        +$$$$$$$$$$$$$$$$$$$$$$$$$$$$$%3333333333333",
"33333333333-        &3333333333333333333333333333333333333333333",
"33333333333-        &3333333333333333333333333333333333333333333",
"33333333333-        &3333333333333333333333333333333333333333333",
"33333333333-        &3333333333333333333333333333333333333333333",
"33333333333-        &3333333333333333333333333333333333333333333",
"33333333333-        &3333333333333333333333333333333333333333333",
"33333333333-        &3333333333333333333333333333333333333333333",
"33333333333-        &3333333333333333333333333333333333333333333",
"33333333333-        &3333333333333333333333333333333333333333333",
"33333333333-        &3333333333333333333333333333333333333333333",
"33333333333-        &3333333333333333333333333333333333333333333",
"33333333333-        &3333333333333333333333333333333333333333333",
"33333333333-        &3333333333333333333333333333333333333333333",
"33333333333-        Xoooooooooooooooooooooooooooooooo,3333333333",
"33333333333-                                         >3333333333",
"33333333333-                                         >3333333333",
"33333333333-                                         >3333333333",
"33333333333:*****************************************13333333333",
"3333333333333333333333333333333333333333333333333333333333333333",
"3333333333333333333333333333333333333333333333333333333333333333",
"3333333333333333333333333333333333333333333333333333333333333333",
"3333333333333333333333333333333333333333333333333333333333333333",
"3333333333333333333333333333333333333333333333333333333333333333",
"3333333333333333333333333333333333333333333333333333333333333333",
"3333333333333333333333333333333333333333333333333333333333333333",
"3333333333333333333333333333333333333333333333333333333333333333",
"3333333333333333333333333333333333333333333333333333333333333333",
"3333333333333333333333333333333333333333333333333333333333333333",
"3333333333333333333333333333333333333333333333333333333333333333",
"3333333333333333333333333333333333333333333333333333333333333333",
"3333333333333333333333333333333333333333333333333333333333333333",
"3333333333333333333333333333333333333333333333333333333333333333"
};
