/* XPM */
static char *result[] = {
/* columns rows colors chars-per-pixel */
"64 64 96 2 ",
"   c black",
".  c #010101",
"X  c #020202",
"o  c gray1",
"O  c #040404",
"+  c gray2",
"@  c #060606",
"#  c #070707",
"$  c gray3",
"%  c gray4",
"&  c #0C0C0C",
"*  c gray5",
"=  c #0E0E0E",
"-  c gray6",
";  c #101010",
":  c gray7",
">  c #131313",
",  c gray8",
"<  c #151515",
"1  c #161616",
"2  c gray9",
"3  c #181818",
"4  c #191919",
"5  c gray10",
"6  c #1B1B1B",
"7  c gray11",
"8  c #1D1D1D",
"9  c #1E1E1E",
"0  c #202020",
"q  c gray13",
"w  c #222222",
"e  c #232323",
"r  c gray14",
"t  c #252525",
"y  c gray15",
"u  c #282828",
"i  c gray16",
"p  c #2A2A2A",
"a  c gray17",
"s  c #2C2C2C",
"d  c #2D2D2D",
"f  c gray18",
"g  c #2F2F2F",
"h  c #313131",
"j  c #323232",
"k  c gray20",
"l  c #343434",
"z  c #353535",
"x  c gray21",
"c  c #373737",
"v  c gray22",
"b  c #393939",
"n  c #3A3A3A",
"m  c gray23",
"M  c #3C3C3C",
"N  c gray24",
"B  c #3E3E3E",
"V  c #3F3F3F",
"C  c gray25",
"Z  c #414141",
"A  c gray26",
"S  c #434343",
"D  c #444444",
"F  c gray27",
"G  c #464646",
"H  c gray28",
"J  c #484848",
"K  c #494949",
"L  c gray29",
"P  c #4B4B4B",
"I  c #4C4C4C",
"U  c gray30",
"Y  c #4E4E4E",
"T  c gray31",
"R  c #505050",
"E  c #515151",
"W  c gray32",
"Q  c #535353",
"!  c gray33",
"~  c #555555",
"^  c #565656",
"/  c #585858",
"(  c gray35",
")  c #5A5A5A",
"_  c #5B5B5B",
"`  c gray36",
"'  c #5D5D5D",
"]  c gray37",
"[  c #5F5F5F",
"{  c #606060",
"}  c gray38",
"|  c #626262",
" . c gray39",
".. c #646464",
"X. c #656565",
"o. c gray40",
/* pixels */
"o.o.o.o.o.o.o.o.o.o.o.o.o.o.o.o.o.o.o.o.o.o.o.o.o.o.o.o.o.o.o.o.o.o.o.o.o.o.o.o.o.o.o.o.o.o.o.o.o.o.o.o.o.o.o.o.o.o.o.o.o.o.o.o.",
"o.o.o.o.o.o.o.o.o.o.o.o.o.o.o.o.o.o.o.o.o.o.o.o.o.o.o.o.o.o.o.o.o.o.o.o.o.o.o.o.o.o.o.o.o.o.o.o.o.o.o.o.o.o.o.o.o.o.o.o.o.o.o.o.",
"o.o.o.o.o.o.o.o.o.o.o.o.o.o.o.o.o.o.o.o.o.o.o.o.o.o.o.o.o.o.o.o.o.o.o.o.o.o.o.o.o.o.o.o.o.o.o.o.o.o.o.o.o.o.o.o.o.o.o.o.o.o.o.o.",
"o.o.o.o.o.o.o.o.o.o.o.o.o.o.o.o.o.o.o.o.o.o.o.o.o.o.o.o.o.o.o.o.o.o.o.o.o.o.o.o.o.o.o.o.o.o.o.o.o.o.o.o.o.o.o.o.o.o.o.o.o.o.o.o.",
"o.o.o.o.o.o.o.o.o.o.o.o.o.o.o.o.o.o.o.o.o.o.o.o.o.o.o.o.o.o.o.o.o.o.o.o.o.o.o.o.o.o.o.o.o.o.o.o.o.o.o.o.o.o.o.o.o.o.o.o.o.o.o.o.",
"o.o.o.o.o.o.o.o.o.o.o.o.o.o.o.o.o.o.o.o.o.o.o.o.o.o.o.o.o.o.o.o.o.o.o.o.o.o.o.o.o.o.o.o.o.o.o.o.o.o.o.o.o.o.o.o.o.o.o.o.o.o.o.o.",
"o.o.o.o.o.o.o.o.o.o.o.o.o.o.o.o.o.o.o.o.o.o.o.o.o.o.o.o.o.o.o.o.o.o.o.o.o.o.o.o.o.o.o.o.o.o.o.o.o.o.o.o.o.o.o.o.o.o.o.o.o.o.o.o.",
"o.o.o.o.o.o.o.o.o.o.o.o.o.o.o.o.o.o.o.o.o.o.o.o.o.o.o.o.o.o.o.o.o.o.o.o.o.o.o.o.o.o.o.o.o.o.o.o.o.o.o.o.o.o.o.o.o.o.o.o.o.o.o.o.",
"o.o.o.o.o.o.o.o.o.o.o.o.o.o.o.o.o.o.o.o.o.o.o.o.o.o.o.o.o.o.o.o.o.o.o.o.o.o.o.o.o.o.o.o.o.o.o.o.o.o.o.o.o.o.o.o.o.o.o.o.o.o.o.o.",
"o.o.o.o.o.o.o.o.o.o.o.o.o.o.o.o.o.o.o.o.o.o.o.o.o.o.o.o.o.o.o.o.o.o.o.o.o.o.o.o.o.o.o.o.o.o.o.o.o.o.o.o.o.o.o.o.o.o.o.o.o.o.o.o.",
"o.o.o.o.o.o.o.o.o.o.o.o.o.o.o.o.o.o.o.o.o.o.o.o.o.o.o.o.o.o.o.o.o.o.o.o.o.o.o.o.o.o.o.o.o.o.o.o.o.o.o.o.o.o.o.o.o.o.o.o.o.o.o.o.",
"o.o.o.o.] ( ( ( ( ( ] o.o.o.o.o.o.o.o.o.o.o.o.o.o.o.o.o.o.| ( ( ( ( ( ( ] o.o.o.o.o.o.o.o.o.o.o.o.o.o.o.o.o.o. .( ( ( ( ( ) o.o.",
"o.o.o.o.x           3 o.o.o.o.o.o.o.o.o.o.o.o.o.o.o.o.o.o.j             > o.o.o.o.o.o.o.o.o.o.o.o.o.o.o.o.o.o.b           , o.o.",
"o.o.o.o.^           . ] o.o.o.o.o.o.o.o.o.o.o.o.o.o.o.o.o.>               ) o.o.o.o.o.o.o.o.o.o.o.o.o.o.o.o.o.5           k o.o.",
"o.o.o.o.o.-           C o.o.o.o.o.o.o.o.o.o.o.o.o.o.o.o.)                 m o.o.o.o.o.o.o.o.o.o.o.o.o.o.o.o.[ X           Q o.o.",
"o.o.o.o.o.f           0 o.o.o.o.o.o.o.o.o.o.o.o.o.o.o.o.m                 7 o.o.o.o.o.o.o.o.o.o.o.o.o.o.o.o.A           & o.o.o.",
"o.o.o.o.o.Y           O  .o.o.o.o.o.o.o.o.o.o.o.o.o.o.o.7         X       X { o.o.o.o.o.o.o.o.o.o.o.o.o.o.o.w           s o.o.o.",
"o.o.o.o.o.X.$           J o.o.o.o.o.o.o.o.o.o.o.o.o.o.} X       + u         D o.o.o.o.o.o.o.o.o.o.o.o.o.o...@           P o.o.o.",
"o.o.o.o.o.o.y           i o.o.o.o.o.o.o.o.o.o.o.o.o.o.D         q K         r o.o.o.o.o.o.o.o.o.o.o.o.o.o.L           @ ..o.o.o.",
"o.o.o.o.o.o.G           % o.o.o.o.o.o.o.o.o.o.o.o.o.o.t         C  .O       # ..o.o.o.o.o.o.o.o.o.o.o.o.o.a           r o.o.o.o.",
"o.o.o.o.o.o.| o           E o.o.o.o.o.o.o.o.o.o.o.o.X.$       . ' o.0         I o.o.o.o.o.o.o.o.o.o.o.o.o.&           S o.o.o.o.",
"o.o.o.o.o.o.o.9           j o.o.o.o.o.o.o.o.o.o.o.o.U         2 o.o.B         d o.o.o.o.o.o.o.o.o.o.o.o.Q           X { o.o.o.o.",
"o.o.o.o.o.o.o.B           > o.o.o.o.o.o.o.o.o.o.o.o.f         x o.o.`         = o.o.o.o.o.o.o.o.o.o.o.o.l           7 o.o.o.o.o.",
"o.o.o.o.o.o.o.'             ) o.o.o.o.o.o.o.o.o.o.o.-         ! o.o.o.<         ~ o.o.o.o.o.o.o.o.o.o.o.<           M o.o.o.o.o.",
"o.o.o.o.o.o.o.o.1           m o.o.o.o.o.o.o.o.o.o.^         * o.o.o.o.k         x o.o.o.o.o.o.o.o.o.o.`             _ o.o.o.o.o.",
"o.o.o.o.o.o.o.o.x           7 o.o.o.o.o.o.o.o.o.o.c         s o.o.o.o.W         2 o.o.o.o.o.o.o.o.o.o.N           , o.o.o.o.o.o.",
"o.o.o.o.o.o.o.o.~           X { o.o.o.o.o.o.o.o.o.3         L o.o.o.o.o.%       . ' o.o.o.o.o.o.o.o.o.9           l o.o.o.o.o.o.",
"o.o.o.o.o.o.o.o.o.=           D o.o.o.o.o.o.o.o.] .       + ..o.o.o.o.o.u         V o.o.o.o.o.o.o.o.| o           Q o.o.o.o.o.o.",
"o.o.o.o.o.o.o.o.o.f           r o.o.o.o.o.o.o.o.C         w o.o.o.o.o.o.H         0 o.o.o.o.o.o.o.o.G           & o.o.o.o.o.o.o.",
"o.o.o.o.o.o.o.o.o.U           # ..o.o.o.o.o.o.o.q         C o.o.o.o.o.o.| o       O  .o.o.o.o.o.o.o.y           s o.o.o.o.o.o.o.",
"o.o.o.o.o.o.o.o.o.X.$           I o.o.o.o.o.o. .+       . ] o.o.o.o.o.o.o.8         J o.o.o.o.o.o.X.$           I o.o.o.o.o.o.o.",
"o.o.o.o.o.o.o.o.o.o.y           d o.o.o.o.o.o.K         3 o.o.o.o.o.o.o.o.M         u o.o.o.o.o.o.Y           @ ..o.o.o.o.o.o.o.",
"o.o.o.o.o.o.o.o.o.o.F           = o.o.o.o.o.o.p         x o.o.o.o.o.o.o.o.)         % o.o.o.o.o.o.g           r o.o.o.o.o.o.o.o.",
"o.o.o.o.o.o.o.o.o.o.| o           ~ o.o.o.o.o.&         ^ o.o.o.o.o.o.o.o.o.:         R o.o.o.o.o.;           D o.o.o.o.o.o.o.o.",
"o.o.o.o.o.o.o.o.o.o.o.9           x o.o.o.o.W         = o.o.o.o.o.o.o.o.o.o.h         h o.o.o.o./           X { o.o.o.o.o.o.o.o.",
"o.o.o.o.o.o.o.o.o.o.o.N           2 o.o.o.o.k         d o.o.o.o.o.o.o.o.o.o.T         : o.o.o.o.v           7 o.o.o.o.o.o.o.o.o.",
"o.o.o.o.o.o.o.o.o.o.o.`           . ' o.o.o.,         I o.o.o.o.o.o.o.o.o.o.X.$         ( o.o.o.4           M o.o.o.o.o.o.o.o.o.",
"o.o.o.o.o.o.o.o.o.o.o.o.1           V o.o._         @ ..o.o.o.o.o.o.o.o.o.o.o.y         n o.o.[ .           _ o.o.o.o.o.o.o.o.o.",
"o.o.o.o.o.o.o.o.o.o.o.o.z           0 o.o.M         e o.o.o.o.o.o.o.o.o.o.o.o.D         6 o.o.Z           < o.o.o.o.o.o.o.o.o.o.",
"o.o.o.o.o.o.o.o.o.o.o.o.~           O  .o.8         A o.o.o.o.o.o.o.o.o.o.o.o.} X       X { o.w           l o.o.o.o.o.o.o.o.o.o.",
"o.o.o.o.o.o.o.o.o.o.o.o.o.=           J } o       . [ o.o.o.o.o.o.o.o.o.o.o.o.o.6         S ..+           ! o.o.o.o.o.o.o.o.o.o.",
"o.o.o.o.o.o.o.o.o.o.o.o.o.d           u F         4 o.o.o.o.o.o.o.o.o.o.o.o.o.o.b         r L           * o.o.o.o.o.o.o.o.o.o.o.",
"o.o.o.o.o.o.o.o.o.o.o.o.o.U           % t         v o.o.o.o.o.o.o.o.o.o.o.o.o.o./         @ i           s o.o.o.o.o.o.o.o.o.o.o.",
"o.o.o.o.o.o.o.o.o.o.o.o.o.X.#           X         ^ o.o.o.o.o.o.o.o.o.o.o.o.o.o.o.;         X           I o.o.o.o.o.o.o.o.o.o.o.",
"o.o.o.o.o.o.o.o.o.o.o.o.o.o.t                   - o.o.o.o.o.o.o.o.o.o.o.o.o.o.o.o.f                   # ..o.o.o.o.o.o.o.o.o.o.o.",
"o.o.o.o.o.o.o.o.o.o.o.o.o.o.F                   f o.o.o.o.o.o.o.o.o.o.o.o.o.o.o.o.U                   t o.o.o.o.o.o.o.o.o.o.o.o.",
"o.o.o.o.o.o.o.o.o.o.o.o.o.o.} o                 I o.o.o.o.o.o.o.o.o.o.o.o.o.o.o.o...#                 D o.o.o.o.o.o.o.o.o.o.o.o.",
"o.o.o.o.o.o.o.o.o.o.o.o.o.o.o.8               @ ..o.o.o.o.o.o.o.o.o.o.o.o.o.o.o.o.o.e               o } o.o.o.o.o.o.o.o.o.o.o.o.",
"o.o.o.o.o.o.o.o.o.o.o.o.o.o.o.N               r o.o.o.o.o.o.o.o.o.o.o.o.o.o.o.o.o.o.A               8 o.o.o.o.o.o.o.o.o.o.o.o.o.",
"o.o.o.o.o.o.o.o.o.o.o.o.o.o.o.o.o.o.o.o.o.o.o.o.o.o.o.o.o.o.o.o.o.o.o.o.o.o.o.o.o.o.o.o.o.o.o.o.o.o.o.o.o.o.o.o.o.o.o.o.o.o.o.o.",
"o.o.o.o.o.o.o.o.o.o.o.o.o.o.o.o.o.o.o.o.o.o.o.o.o.o.o.o.o.o.o.o.o.o.o.o.o.o.o.o.o.o.o.o.o.o.o.o.o.o.o.o.o.o.o.o.o.o.o.o.o.o.o.o.",
"o.o.o.o.o.o.o.o.o.o.o.o.o.o.o.o.o.o.o.o.o.o.o.o.o.o.o.o.o.o.o.o.o.o.o.o.o.o.o.o.o.o.o.o.o.o.o.o.o.o.o.o.o.o.o.o.o.o.o.o.o.o.o.o.",
"o.o.o.o.o.o.o.o.o.o.o.o.o.o.o.o.o.o.o.o.o.o.o.o.o.o.o.o.o.o.o.o.o.o.o.o.o.o.o.o.o.o.o.o.o.o.o.o.o.o.o.o.o.o.o.o.o.o.o.o.o.o.o.o.",
"o.o.o.o.o.o.o.o.o.o.o.o.o.o.o.o.o.o.o.o.o.o.o.o.o.o.o.o.o.o.o.o.o.o.o.o.o.o.o.o.o.o.o.o.o.o.o.o.o.o.o.o.o.o.o.o.o.o.o.o.o.o.o.o.",
"o.o.o.o.o.o.o.o.o.o.o.o.o.o.o.o.o.o.o.o.o.o.o.o.o.o.o.o.o.o.o.o.o.o.o.o.o.o.o.o.o.o.o.o.o.o.o.o.o.o.o.o.o.o.o.o.o.o.o.o.o.o.o.o.",
"o.o.o.o.o.o.o.o.o.o.o.o.o.o.o.o.o.o.o.o.o.o.o.o.o.o.o.o.o.o.o.o.o.o.o.o.o.o.o.o.o.o.o.o.o.o.o.o.o.o.o.o.o.o.o.o.o.o.o.o.o.o.o.o.",
"o.o.o.o.o.o.o.o.o.o.o.o.o.o.o.o.o.o.o.o.o.o.o.o.o.o.o.o.o.o.o.o.o.o.o.o.o.o.o.o.o.o.o.o.o.o.o.o.o.o.o.o.o.o.o.o.o.o.o.o.o.o.o.o.",
"o.o.o.o.o.o.o.o.o.o.o.o.o.o.o.o.o.o.o.o.o.o.o.o.o.o.o.o.o.o.o.o.o.o.o.o.o.o.o.o.o.o.o.o.o.o.o.o.o.o.o.o.o.o.o.o.o.o.o.o.o.o.o.o.",
"o.o.o.o.o.o.o.o.o.o.o.o.o.o.o.o.o.o.o.o.o.o.o.o.o.o.o.o.o.o.o.o.o.o.o.o.o.o.o.o.o.o.o.o.o.o.o.o.o.o.o.o.o.o.o.o.o.o.o.o.o.o.o.o.",
"o.o.o.o.o.o.o.o.o.o.o.o.o.o.o.o.o.o.o.o.o.o.o.o.o.o.o.o.o.o.o.o.o.o.o.o.o.o.o.o.o.o.o.o.o.o.o.o.o.o.o.o.o.o.o.o.o.o.o.o.o.o.o.o.",
"o.o.o.o.o.o.o.o.o.o.o.o.o.o.o.o.o.o.o.o.o.o.o.o.o.o.o.o.o.o.o.o.o.o.o.o.o.o.o.o.o.o.o.o.o.o.o.o.o.o.o.o.o.o.o.o.o.o.o.o.o.o.o.o.",
"o.o.o.o.o.o.o.o.o.o.o.o.o.o.o.o.o.o.o.o.o.o.o.o.o.o.o.o.o.o.o.o.o.o.o.o.o.o.o.o.o.o.o.o.o.o.o.o.o.o.o.o.o.o.o.o.o.o.o.o.o.o.o.o.",
"o.o.o.o.o.o.o.o.o.o.o.o.o.o.o.o.o.o.o.o.o.o.o.o.o.o.o.o.o.o.o.o.o.o.o.o.o.o.o.o.o.o.o.o.o.o.o.o.o.o.o.o.o.o.o.o.o.o.o.o.o.o.o.o.",
"o.o.o.o.o.o.o.o.o.o.o.o.o.o.o.o.o.o.o.o.o.o.o.o.o.o.o.o.o.o.o.o.o.o.o.o.o.o.o.o.o.o.o.o.o.o.o.o.o.o.o.o.o.o.o.o.o.o.o.o.o.o.o.o."
};
