/* XPM */
static char *result[] = {
/* columns rows colors chars-per-pixel */
"48 48 138 2 ",
"   c #24352E",
".  c #26392F",
"X  c #253531",
"o  c #263C32",
"O  c #283D32",
"+  c #3D3634",
"@  c #323C34",
"#  c #4A3637",
"$  c #443D36",
"%  c #5E3D36",
"&  c #543538",
"*  c #5C3639",
"=  c #66373C",
"-  c #6C323E",
";  c #633B3B",
":  c #73333E",
">  c #7B333F",
",  c #054333",
"<  c #044B36",
"1  c #0F4E37",
"2  c #1D4334",
"3  c #134934",
"4  c #194B36",
"5  c #174C38",
"6  c #055037",
"7  c #0A5437",
"8  c #1C5437",
"9  c #195139",
"0  c #1A593B",
"q  c #254234",
"w  c #2A4335",
"e  c #264B37",
"r  c #2B4A36",
"t  c #2C4639",
"y  c #244D39",
"u  c #2D4C3A",
"i  c #354435",
"p  c #304833",
"a  c #344739",
"s  c #334E3B",
"d  c #235236",
"f  c #2D5336",
"g  c #265937",
"h  c #24553B",
"j  c #2E533B",
"k  c #255B3A",
"l  c #2B5C3B",
"z  c #345537",
"x  c #31543C",
"c  c #3E543C",
"v  c #325B3C",
"b  c #2C623C",
"n  c #35633B",
"m  c #38643D",
"M  c #414236",
"N  c #4E4536",
"B  c #454E36",
"V  c #4B4C36",
"C  c #414C3A",
"Z  c #4F4C3E",
"A  c #564234",
"S  c #5B4335",
"D  c #53403D",
"F  c #5A453A",
"G  c #594838",
"H  c #674336",
"J  c #6E4337",
"K  c #6D4936",
"L  c #634238",
"P  c #774035",
"I  c #74423C",
"U  c #7B413D",
"Y  c #7C2F41",
"T  c #6E3D41",
"R  c #743340",
"E  c #7B3641",
"W  c #773D42",
"Q  c #7D3844",
"!  c #355A41",
"~  c #624741",
"^  c #7A4243",
"/  c #81363E",
"(  c #8B373F",
")  c #853C3D",
"_  c #8B3A3F",
"`  c #953C3F",
"'  c #9C3E3F",
"]  c #844238",
"[  c #8B4639",
"{  c #8E4A3A",
"}  c #91443A",
"|  c #9B453B",
" . c #A3443E",
".. c #AD463F",
"X. c #A5483D",
"o. c #AD4B3E",
"O. c #B1463F",
"+. c #B44B3E",
"@. c #BB4E3E",
"#. c #B3523D",
"$. c #BE513E",
"%. c #C04F3F",
"&. c #C4553F",
"*. c #C8553F",
"=. c #C7583F",
"-. c #CB583F",
";. c #853541",
":. c #843A44",
">. c #8C3A44",
",. c #8D3C49",
"<. c #953741",
"1. c #943D45",
"2. c #9C3E45",
"3. c #933E49",
"4. c #9B3E48",
"5. c #A23F45",
"6. c #904143",
"7. c #9C4145",
"8. c #96404A",
"9. c #9D4249",
"0. c #A54245",
"q. c #AC4243",
"w. c #AF4944",
"e. c #A24449",
"r. c #B24442",
"t. c #B34A44",
"y. c #BA4D41",
"u. c #B04A48",
"i. c #BC5040",
"p. c #C45540",
"a. c #CA5540",
"s. c #C55A41",
"d. c #CA5C42",
"f. c #C76244",
"g. c #CA6345",
"h. c #C86847",
"j. c #C96848",
"k. c None",
/* pixels */
"k.k.k.k.k.k.k.k.k.k.k.k.k.k.k.k.k.k.k.k.k.k.k.k.k.k.k.k.k.k.k.k.k.k.k.k.k.k.k.k.k.k.k.k.k.k.k.k.",
"k.k.k.k.k.k.k.k.k.k.k.k.k.k.k.k.k.k.k.k.k.k.k.k.k.k.k.k.k.k.k.k.k.k.k.k.k.k.k.k.k.k.k.k.k.k.k.k.",
"k.k.k.k.k.k.k.k.k.k.k.k.k.k.k.k.k.k.k.k.k.k.k.k.k.k.k.k.k.k.k.k.k.k.k.k.k.k.k.k.k.k.k.k.k.k.k.k.",
"k.k.k.k.k.k.k.k.k.k.k.k.k.k.k.k.k.k.k.k.k.k.k.k.k.k.k.k.k.o X X X k.k.k.k.k.k.k.k.k.k.k.k.k.k.k.",
"k.k.k.k.k.k.k.k.k.k.k.k.k.k.k.k.k.k.k.k.k.k.k.k.k.k.k.k.o o o o .   k.k.k.k.k.k.k.k.k.k.k.k.k.k.",
"k.k.k.k.k.k.k.k.k.k.k.k.k.k.k.k.k.k.k.k.k.k.k.k.k.k.k.o o w t t t O k.k.k.k.k.k.k.k.k.k.k.k.k.k.",
"k.k.k.k.k.k.k.k.k.k.k.k.k.k.k.k.k.k.k.k.k.k.k.k.k.k.k.X X w s ! r r w k.k.k.k.k.k.k.k.k.k.k.k.k.",
"k.k.k.k.k.k.k.k.k.k.k.k.k.k.o O O O O q k.k.k.k.k.k.k.X o w u s x u r O o k.k.k.k.k.k.k.k.k.k.k.",
"k.k.k.k.k.k.k.k.k.k.k.k.k.k.w t u u r w w k.k.k.k.k.k.X o w u x l x u t o   k.k.k.k.k.k.k.k.k.k.",
"k.k.k.k.k.k.k.k.k.k.k.k.k.r r x ! ! ! f t k.k.k.k.k.k.o O t j v x ! x u o   k.k.k.k.k.k.k.k.k.k.",
"k.k.k.k.k.k.k.k.k.k.k.w e p z v m ! v z r r o X   o o w t j x x ! x ! u o   k.k.k.k.k.k.k.k.k.k.",
"k.k.k.k.k.k.k.k.k.k.o q e z v n m m n v z r w o o o O t u u ! x j j u t o   k.k.k.k.k.k.k.k.k.k.",
"k.k.k.k.k.k.k.k.k.k.O w r j v n m m n n v x a t O O t u ! j j ! j u r w O k.k.k.k.k.k.k.k.k.k.k.",
"k.k.k.k.k.k.k.k.k.k.k.w e e d k b n n m m ! j u t w w t t t y t r w o o k.k.k.k.k.k.k.k.k.k.k.k.",
"k.k.k.k.k.k.k.k.k.k.k.k.k.4 3 8 b b m m m v ! u t w O q w w w w w . o k.k.k.k.k.k.k.k.k.k.k.k.k.",
"k.k.k.k.k.k.k.k.k.k.k.k.k.k.@ a x n n n n l h j t q q O O q w w w o k.k.k.k.k.k.k.k.k.k.k.k.k.k.",
"k.k.k.k.k.k.k.k.k.k.k.k.k.k.& & Z c l k k h h y 4 2 2 q q t p r w w w k.k.k.k.k.k.k.k.k.k.k.k.k.",
"k.k.k.k.k.k.k.k.k.k.k.k.k.k.T T L C 7 6 7 < < , , , , 4 d x x x u t t w k.k.k.k.k.k.k.k.k.k.k.k.",
"k.k.k.k.k.k.k.k.k.k.k.k.k.k.( ;.^ F i q e q w w O q q e j l v x v x u u O k.k.k.k.k.k.k.k.k.k.k.",
"k.k.k.k.k.k.k.k.k.k.k.k.k.<.` 2.6.U L G A S S S % A N C x k ! v v l j y w @ k.k.k.k.k.k.k.k.k.k.",
"k.k.k.k.k.k.k.k.k.k.k.k.>.` ' 5.0.| { { { { { [ [ ] P G s 9 0 b v l k 4 2 + * k.k.k.k.k.k.k.k.k.",
"k.k.k.k.k.k.k.k.k.k.k.;.>.|  .O.t.+.+.#.#.#.#.+.o.X.{ J M 3 7 k n b 8 < O # T R Y k.k.k.k.k.k.k.",
"k.k.k.k.k.k.k.k.k.k.> >.7.e.w.+.$.$.=.=.=.=.&.p.$.+.X.) S i d l n v f t $ * W Q > k.k.k.k.k.k.k.",
"k.k.k.k.k.k.k.k.k.k.> >.9.t.+.$.=.=.f.d.d.-.-.a.&.$.+. .] J V z k f B F T W :.:.: k.k.k.k.k.k.k.",
"k.k.k.k.k.k.k.k.k.k.E >.9.t.y.$.s.d.h.h.f.=.&.&.&.&.@.+.X.[ K B 4 r G U :.6.:.Q R k.k.k.k.k.k.k.",
"k.k.k.k.k.k.k.k.k.k.: ;.2.w.y.p.d.h.h.h.g.=.&.&.&.&.&.%.+.X.[ S i M I >.3.,.>.E : k.k.k.k.k.k.k.",
"k.k.k.k.k.k.k.k.k.k.: >.7.w.@.p.g.f.h.h.f.=.&.&.&.&.&.%.@.+.| : % ; :.<.2.3.>.E - k.k.k.k.k.k.k.",
"k.k.k.k.k.k.k.k.k.k.> ;.7.w.i.s.-.g.f.f.s.=.&.&.*.&.&.p.@.+.X.} ) ] >.2.4.1.,.E : k.k.k.k.k.k.k.",
"k.k.k.k.k.k.k.k.k.k.> ;.7.w.$.&.-.=.=.=.=.&.&.&.&.&.&.%.+.+... ...5.2.2.1.3.:.E : k.k.k.k.k.k.k.",
"k.k.k.k.k.k.k.k.k.k.> >.7.w.@.&.=.&.&.=.&.&.&.&.=.&.%.%.+.+.O.O.5.r.5.5.8.>.,.Q - k.k.k.k.k.k.k.",
"k.k.k.k.k.k.k.k.k.k.> _ 9.u.@.$.&.&.&.&.&.=.=.&.&.$.@.+.O.r.O.r.r.5.0.9.1.3.,.Q : k.k.k.k.k.k.k.",
"k.k.k.k.k.k.k.k.k.k.> >.e.u.+.@.&.&.&.=.=.=.&.$.$.@.+.O.O.r.r.r.r.q.0.9.2.8.8.Q - k.k.k.k.k.k.k.",
"k.k.k.k.k.k.k.k.k.k.E >.7.0...+.y.p.p.%.&.&.&.&.@.+.O.O.q.q.q.O.q.q.5.2.1.3.:.Q : k.k.k.k.k.k.k.",
"k.k.k.k.k.k.k.k.k.k.k.) _ ` | ..y.y.@.p.%.p.y.@.+.O...r.r.q.q.q.q.5.0.2.>.:.E R : k.k.k.k.k.k.k.",
"k.k.k.k.k.k.k.k.k.k.k.k._ _ 1.0.t.y.y.y.y.y.y.y.+.r.r.r.r.q.q.0.5.9.9.3.>.E R k.k.k.k.k.k.k.k.k.",
"k.k.k.k.k.k.k.k.k.k.k.k.k./ _ 7.u.q.r.r.r.r.r.r.O.r.q.r.r.q.q.0.2.4.3.,.E : k.k.k.k.k.k.k.k.k.k.",
"k.k.k.k.k.k.k.k.k.k.k.k.k.k./ >.<.2.5.q.r.5.5.5.5.5.q.5.5.r.5.5.4.>.:.E : k.k.k.k.k.k.k.k.k.k.k.",
"k.k.k.k.k.k.k.k.k.k.k.k.k.k.k.> ( ( <.5.5.2.5.2.5.5.2.5.2.5.9.8.3.:.E R k.k.k.k.k.k.k.k.k.k.k.k.",
"k.k.k.k.k.k.k.k.k.k.k.k.k.k.k.k.;./ >.3.2.,.>.>.<.>.>.>.<.>.3.,.>.E R k.k.k.k.k.k.k.k.k.k.k.k.k.",
"k.k.k.k.k.k.k.k.k.k.k.k.k.k.k.k.k.: R Q :.E E E E E E E E E Q :.R R k.k.k.k.k.k.k.k.k.k.k.k.k.k.",
"k.k.k.k.k.k.k.k.k.k.k.k.k.k.k.k.k.k.- - - - - - - - - - - - - : : : k.k.k.k.k.k.k.k.k.k.k.k.k.k.",
"k.k.k.k.k.k.k.k.k.k.k.k.k.k.k.k.k.k.k.k.k.k.k.k.k.k.k.k.k.k.k.k.k.k.k.k.k.k.k.k.k.k.k.k.k.k.k.k.",
"k.k.k.k.k.k.k.k.k.k.k.k.k.k.k.k.k.k.k.k.k.k.k.k.k.k.k.k.k.k.k.k.k.k.k.k.k.k.k.k.k.k.k.k.k.k.k.k.",
"k.k.k.k.k.k.k.k.k.k.k.k.k.k.k.k.k.k.k.k.k.k.k.k.k.k.k.k.k.k.k.k.k.k.k.k.k.k.k.k.k.k.k.k.k.k.k.k.",
"k.k.k.k.k.k.k.k.k.k.k.k.k.k.k.k.k.k.k.k.k.k.k.k.k.k.k.k.k.k.k.k.k.k.k.k.k.k.k.k.k.k.k.k.k.k.k.k.",
"k.k.k.k.k.k.k.k.k.k.k.k.k.k.k.k.k.k.k.k.k.k.k.k.k.k.k.k.k.k.k.k.k.k.k.k.k.k.k.k.k.k.k.k.k.k.k.k.",
"k.k.k.k.k.k.k.k.k.k.k.k.k.k.k.k.k.k.k.k.k.k.k.k.k.k.k.k.k.k.k.k.k.k.k.k.k.k.k.k.k.k.k.k.k.k.k.k.",
"k.k.k.k.k.k.k.k.k.k.k.k.k.k.k.k.k.k.k.k.k.k.k.k.k.k.k.k.k.k.k.k.k.k.k.k.k.k.k.k.k.k.k.k.k.k.k.k."
};
