/* XPM */
static char *result[] = {
/* columns rows colors chars-per-pixel */
"71 71 232 2 ",
"   c #B75B03",
".  c #AA5935",
"X  c #A74E33",
"o  c #BA642A",
"O  c #B96938",
"+  c #AD633C",
"@  c #C67238",
"#  c #C26C32",
"$  c #95326A",
"%  c #923D6F",
"&  c #8E3F70",
"*  c #95356C",
"=  c #A95B52",
"-  c #987A5D",
";  c #AA664D",
":  c #B46B4E",
">  c #B96B4E",
",  c #B56949",
"<  c #BD7248",
"1  c #AC6D55",
"2  c #A96954",
"3  c #B56D53",
"4  c #B56A58",
"5  c #AB7254",
"6  c #BA7452",
"7  c #BC7953",
"8  c #B77759",
"9  c #99436F",
"0  c #9B5666",
"q  c #8D4272",
"w  c #944371",
"e  c #9C4671",
"r  c #9D4A77",
"t  c #915C7A",
"y  c #AA5D61",
"u  c #AC5768",
"i  c #B65669",
"p  c #BC586A",
"a  c #A44873",
"s  c #AA4B73",
"d  c #A74977",
"f  c #BB4674",
"g  c #B44E74",
"h  c #BD4E74",
"j  c #B54A75",
"k  c #BB5176",
"l  c #BE5279",
"z  c #B55278",
"x  c #B14B71",
"c  c #946F71",
"v  c #AB6A67",
"b  c #B66665",
"n  c #A6756A",
"m  c #B67C66",
"M  c #A5737B",
"N  c #A06874",
"B  c #CA7B4A",
"V  c #C67847",
"C  c #D27E4C",
"Z  c #D7774F",
"A  c #CB7D52",
"S  c #C27B54",
"D  c #D67E55",
"F  c #C75B6C",
"G  c #C24D75",
"H  c #CC4C76",
"J  c #CA4E78",
"K  c #C74877",
"L  c #D34C76",
"P  c #D44D79",
"I  c #D84C7A",
"U  c #C15275",
"Y  c #C25579",
"T  c #CF567C",
"R  c #CD5479",
"E  c #D25177",
"W  c #D85277",
"Q  c #D55279",
"!  c #D9527A",
"~  c #D1587C",
"^  c #C46867",
"/  c #C96F73",
"(  c #2FB179",
")  c #569D71",
"_  c #599C72",
"`  c #599A6F",
"'  c #769A6E",
"]  c #6C8E7A",
"[  c #688B77",
"{  c #6B917B",
"}  c #659879",
"|  c #799E71",
" . c #48AC77",
".. c #56A875",
"X. c #53B47F",
"o. c #5AB27D",
"O. c #66AB79",
"+. c #79A072",
"@. c #76A274",
"#. c #BD825D",
"$. c #968762",
"%. c #86976B",
"&. c #9D946A",
"*. c #8E8570",
"=. c #A78E63",
"-. c #A98B63",
";. c #BD8164",
":. c #BC846A",
">. c #B78967",
",. c #A49267",
"<. c #B59166",
"1. c #BD9569",
"2. c #AB8576",
"3. c #B98E7C",
"4. c #B68977",
"5. c #BA937C",
"6. c #8CA575",
"7. c #A2AC7A",
"8. c #D3824E",
"9. c #C4845E",
"0. c #CC8357",
"q. c #D48254",
"w. c #D98354",
"e. c #D38559",
"r. c #D68B5C",
"t. c #DA8A59",
"y. c #D98957",
"u. c #D18654",
"i. c #C58563",
"p. c #CB8464",
"a. c #CB8A63",
"s. c #C48A67",
"d. c #D38D63",
"f. c #DA8D6C",
"g. c #CC9367",
"h. c #D59263",
"j. c #D59369",
"k. c #DA966B",
"l. c #DD9C6C",
"z. c #D99265",
"x. c #C28F75",
"c. c #C5947A",
"v. c #D19B78",
"b. c #E29D6A",
"n. c #E59A68",
"m. c #E5A26E",
"M. c #E6A572",
"N. c #EAA573",
"B. c #ECAA75",
"V. c #ECAC7A",
"C. c #E5A876",
"Z. c #F2AB76",
"A. c #F4AC78",
"S. c #F3A877",
"D. c #EDB27E",
"F. c #F9B17B",
"G. c #D29666",
"H. c #6D7DAA",
"J. c #897899",
"K. c #93708E",
"L. c #A77D81",
"P. c #8F7DA2",
"I. c #BE5480",
"U. c #CA5481",
"Y. c #E65984",
"T. c #34BE83",
"R. c #4AB680",
"E. c #56B680",
"W. c #71AC82",
"Q. c #6E89BC",
"!. c #39C186",
"~. c #2DA5E9",
"^. c #28A0E2",
"/. c #469ADA",
"(. c #5595D2",
"). c #6991CA",
"_. c #8D888C",
"`. c #908D8E",
"'. c #8E8A94",
"]. c #908F91",
"[. c #8F9092",
"{. c #BA9584",
"}. c #B99C93",
"|. c #A59092",
" X c #B7A399",
".X c #8C82AA",
"XX c #B49DA3",
"oX c #AF98A2",
"OX c #A5A3A4",
"+X c #AAA8A8",
"@X c #B8A9A8",
"#X c #B8B1AC",
"$X c #BDBCB5",
"%X c #B6B7B3",
"&X c #81AC86",
"*X c #C49B87",
"=X c #C6A18C",
"-X c #CCA38B",
";X c #CCAD9A",
":X c #C8A796",
">X c #D1AF9C",
",X c #D2B29E",
"<X c #CEB09E",
"1X c #CAB6A8",
"2X c #D2BBAA",
"3X c #D3B6A4",
"4X c #CFBEB1",
"5X c #EEB482",
"6X c #C7C1BA",
"7X c #CAC3BB",
"8X c #D8C7B8",
"9X c #E1CCB9",
"0X c #D6CEC2",
"qX c #DBD2C4",
"wX c #DBD6CB",
"eX c #D6D3CA",
"rX c #DDDCD2",
"tX c #D8D7D0",
"yX c #E4D4C4",
"uX c #E4DACB",
"iX c #E9DCCC",
"pX c #E3DED3",
"aX c #EADFD0",
"sX c #ECE3D4",
"dX c #E8E4D8",
"fX c #F1E6D6",
"gX c #F4EBDB",
"hX c #F4EADB",
"jX c #FAF1DF",
"kX c #F9F2E3",
"lX c #F9EFE0",
"zX c None",
/* pixels */
"zXzXzXzXzXzXzXzXzXzXzXzXzXzXzXzXzXzXzXzXzXzXzXzXzXzXzXzXzXzXzXzXzXzXzXzXzXzXzXzXzXzXzXzXzXzXzXzXzXzXzXzXzXzXzXzXzXzXzXzXzXzXzXzXzXzXzXzXzXzXzX",
"zXzXzXzXzXzXzXzXzXzXzXzXzXzXzXzXzXzXzXzXzXzXzXzXzXzXzXzXzXzXzXzXzXzXzXzXzXzXzXzXzXzXzXzXzXzXzXzXzXzXzXzXzXzXzXzXzXzXzXzXzXzXzXzXzXzXzXzXzXzXzX",
"zXzXzXzXzXzXzXzXzXzXzXzXzXzXzXzXzXzXzXzXzXzXzXzXzXzXzXzXzXzXzXzXzXzXzXzXzXzXzXzXzXzXzXzXzXzXzXzXzXzXzXzXzXzXzXzXzXzXzXzXzXzXzXzXzXzXzXzXzXzXzX",
"zXzXzXzXzXzXzXzXzXzXzXzXzXzXzXzXzXzXzXzXzXzXzXzXzXi.S 9.#.zXzXzXzXzXzXzXzXzXzXzXzXzXzXzXzXzXzXzXzXzXzXzXzXzXzXzXzXzXzXzXzXzXzXzXzXzXzXzXzXzXzX",
"zXzXzXzXzXzXzXzXzXzXzXzXzXzXzXzXzXzXzXzXzXzXzXzXk.F.Z.A.Z.a.zXzXzXzXzXzXzXzXzXzXzXzXzXzXzXzXzXzXzXzXzXzXzXzXzXzXzXzXzXzXzXzXzXzXzXzXzXzXzXzXzX",
"zXzXzXzXzXzXzXzXzXzXzXzXzXzXzXzXzXzXzXzXzXzX5 j.A.A.B.A.A.B.9.zXzXzXzXzXzXzXzXzXzXzXzXzXzXzXzXzXzXzXzXzXzXzXzXzXzXzXzXzXzXzXzXzXzXzXzXzXzXzXzX",
"zXzXzXzXzXzXzXzXzXzXzXzXzXzXzXzXzXzXzXzXzX5 k.A.N.k.k.j.k.Z.Z.a.zXzXzXzXzXzXzXzXzXzXzXzXzXzXzXzXzXzXzXzXzXzXzXzXzXzXzXzXzXzXzXzXzXzXzXzXzXzXzX",
"zXzXzXzXzXzXzXzXzXzXzXzXzXzXzXzXzXzXzXzXzXk.F.N.p.9.i.a.9.z.Z.Z.9.zXzXzXzXzXzXzXzXzXzXzXzXzXzXzXzXzXzXzXzXzXzXzXzXzXzXzXzXzXzXzXzXzXzXzXzXzXzX",
"zXzXzXzXzXzXzXzXzXzXzXzXzXzXzXzXzXzXzXzXk.Z.N.i.7 d.k.l.9.6 a.B.A.a.zXzXzXzXzXzXzXzXzXzXzXzXzXzXzXzXzXzXzXzXzXzXzXzXzXzXzXzXzXzXzXzXzXzXzXzXzX",
"zXzXzXzXzXzXzXzXzXzXzXzXzXzXzXzXzXzXzXk.A.N.S y 6 m.N.N.z.; b j.A.Z.a.zXzXzXzXzXzXzXzXzXzXzXzXzXzXzXzXzXzXzXzXzXzXzXzXzXzXzXzXzXzXzXzXzXzXzXzX",
"zXzXzXzXzXzXzXzXzXzXzXzXzXzXzXzXzX5 j.A.m.p.F i S b.N.N.h.4 h ^ j.B.N.9.zXzXzXzXzXzXzXzXzXzXzXzXzXzXzXzXzXzXzXzXzXzXzXzXzXzXzXzXzXzXzXzXzXzXzX",
"zXzXzXzXzXzXzXzXzXzXzXzXzXzXzXzX8 k.A.m.i.F K p 7 b.m.N.h.3 U L ^ j.Z.Z.g.zXzXzXzXzXzXzXzXzXzXzXzXzXzXzXzXzXzXzXzXzXzXzXzXzXzXzXzXzXzXzXzXzXzX",
"zXzXzXzXzXzXzXzXzXzXzXzXzXzXzX5 k.F.m.i.p P Q i 6 b.M.N.h.3 U I L b g.Z.Z.9.zXzXzXzXzXzXzXzXzXzXzXzXzXzXzXzXzXzXzXzXzXzXzXzXzXzXzXzXzXzXzXzXzX",
"zXzXzXzXzXzXzXzXzXzXzXzXzXzXzXj.Z.B.p.u f ! Q i 7 b.M.N.h.4 U W P f b h.Z.Z.i.zXzXzXzXzXzXzXzXzXzXzXzXzXzXzXzXzXzXzXzXzXzXzXzXzXzXzXzXzXzXzXzX",
"zXzXzXzXzXzXzXzXzXzXzXzXzXzXk.A.m.p.p f G ! E i 6 n.M.N.h.3 U ! E h f ^ j.B.A.e.zXzXzXzXzXzXzXzXzXzXzXzXzXzXzXzXzXzXzXzXzXzXzXzXzXzXzXzXzXzXzX",
"zXzXzXzXzXzXzXzXzXzXzXzX5 j.A.M.p.F P k G ! P i 7 b.N.N.r.3 U ! H k U L ^ h.Z.B.9.zXzXzXzXzXzXzXzXzXzXzXzXzXzXzXzXzXzXzXzXzXzXzXzXzXzXzXzXzXzX",
"zXzXzXzXzXzXzXzXzXzXzX5 k.A.N.;.p I E k k W W i 7 l.M.N.h.4 U W E h U ! H b g.Z.Z.a.zXzXzXzXzXzXzXzXzXzXzXzXzXzXzXzXzXzXzXzXzXzXzXzXzXzXzXzXzX",
"zXzXzXzXzXzXzXzXzXzX5 k.F.M.i.u G I E k U W P i 7 b.N.N.h.4 U ! E h U ! I x b d.A.Z.i.zXzXzXzXzXzXzXzXzXzXzXzXzXzXzXzXzXzXzXzXzXzXzXzXzXzXzXzX",
"zXzXzXzXzXzXzXzXzXzXj.A.m.p.F j G W W k h W E i 6 b.M.N.h.3 k ! E h U ! H h j ^ j.B.Z.a.zXzXzXzXzXzXzXzXzXzXzXzXzXzXzXzXzXzXzXzXzXzXzXzXzXzXzX",
"zXzXzXzXzXzXzXzXzXk.A.N.a.F L k h I E k G W ! i 6 b.N.N.r.3 U ! H h U W L k J I ^ j.B.A.a.zXzXzXzXzXzXzXzXzXzXzXzXzXzXzXzXzXzXzXzXzXzXzXzXzXzX",
"zXzXzXzXzXzXzXzXa.F.B.;.p P W k h ! E k h W ! i 7 b.M.N.h.3 U ! E g U ! H i U ! H ^ d.B.B.9.zXzXzXzXzXzXzXzXzXzXzXzXzXzXzXzXzXzXzXzXzXzXzXzXzX",
"zXzXzXzXzXzXzXzXa.A.p.u f W Q g k W Q k G W E i 6 b.M.N.h.3 U ! E h g G h g g G G x b / / / z x g g g g x g x g g g g s g x g g s zXzXzXzXzXzX",
"zXzXzXzXzXzXzXzX7 f.F j G W W k h W Q k G ! E i 6 b.N.N.h.3 U ! L h G E E H H H E H K K K P ! ! ! Q Q Q ! ! ! Q ! ! Q ! ! ! P Y.Y.zXzXzXzXzXzX",
"zXzXzXzXzXzXzXzX4 / I k k W E k U W W k h ! E i 7 b.N.N.d.3 U ! E h h G G K G G G J G K G G G J J J J J J J J J J J J J R J G Q U.e zXzXzXzXzX",
"zXzXzXzXzXzXzXzXy R ! l k W W h h W Q k G W E i 7 b.N.N.h.3 U W E g r e 9 e e e e e e e e e a e e r e e e e e e e e r e e e e s d zXzXzXzXzXzX",
"zXzXzXzXzXzXzXzXy T I l h W ! z G W E k G W E i 8 h.k.l.0.1 U W E k k k k k k U k k U l U k k l k k k k k k l k k k l k k k k T I.& zXzXzXzXzX",
"zXzXzXzXzXzXzXzXy T ! h h W E h k W Q k G ! P p 5 9.i.a.#.2 J ! E i G R g z g g g g g g g g z g z g g g z g g g g g g g z z g l I.q zXzXzXzXzX",
"zXzXzXzXzXzXzXzXy T ! k k W W k U W E k U I H b h.l.k.l.k.a.p I L k U J s e a a r a a a a a e a a a a r a a a a r a a e r a a s d & zXzXzXzXzX",
"zXzXzXzXzXzXzXzXv R ! k h ! W z h W E k G H ^ j.m.N.N.N.B.m.i.F K h U W G z g g g g g g g g i g g g g g g g g g g g g g g g z l I.& zXzXzXzXzX",
"zXzXzXzXzXzXzXzXy T I l h ! W z G W W h j ^ j.M.B.B.V.C.B.M.m.p.F f U ! E U k l U k l l l l l l k l k l l l k l l l U k k k k T U.q zXzXzXzXzX",
"zXzXzXzXzXzXzXzXy T ! k h ! E h G W P h 2 j.M.V.D.D.D.D.D.D.M.m.i.u K ! E s w e e e e e e e e e e e e e e e e e e e e e e e e d d q zXzXzXzXzX",
"zXzXzXzXzXzXzXzXy T ! k h ! ! z k ! P b j.b.V.V.l.r.h.r.h.M.D.N.l.i.p I E g s k z g g g z g g k g g g z g z g g h g z g g z z l I.q zXzXzXzXzX",
"zXzXzXzXzXzXzXzXy ~ ! h k W W k J K ^ j.m.V.D.l.e.q.e.0.A r.M.5XB.m.a.F L h z h h k k l k k h k k l k k k k k h k k l h k k k U.I.q zXzXzXzXzX",
"zXzXzXzXzXzXzXzXy ~ ! k h W ~ f x ^ j.m.V.D.l.e.D 8.8.8.8.0.r.M.V.B.l.p.p f g g a a a a a a a a a a a a d a a d a a a a a a s d d & zXzXzXzXzX",
"zXzXzXzXzXzXzXzXy T ! k h W ! h b d.N.B.D.l.q.q.0.7 S V A 0.q.r.C.D.M.m.i.u h h s s s d s s d s a s d s s a s s s s s s s s s z I.& zXzXzXzXzX",
"zXzXzXzXzXzXzXzXy T ! k k P L b h.m.V.D.l.e.C A 4. X X X}.:.C D r.C.5XN.m.i.F P Y Y U U U Y Y Y U Y l R Y Y Y T Y Y U U U Y Y U.U.& zXzXzXzXzX",
"zXzXzXzXzXzXzXzXy T Q k G H ^ k.b.V.D.l.e.q.V {.6XwXrXrXeX1Xm B q.d.M.5XN.k.d.F f s s s s s s s s s d s s s d d s z s s s s s z I.zXzXzXzXzXzX",
"zXzXzXzXzXzXzXzXy J ! h g ^ j.b.V.D.l.e.D V 3.7XdXqX7X8XpXpX#Xi.B q.r.M.5XN.l.p.i % $ $ $ $ $ $ $ $ $ $ $ * $ * $ * * * w w % d r q zXzXzXzXzX",
"zXzXzXzXzXzXzX..*.K ! h b a.M.V.D.l.e.8.V {.4XpXyX*X9.7 ;XaXrX1X;.B q.r.M.D.V.b.p.0 q r w q % q w % % w w % % % w & % % 9 q % r r q zXzXzXzXzX",
"zXzXzXzXzXzXzXT.&XK L ^ g.m.B.D.l.q.8.0.{.4XdXyX*X. . X , ;XpXrX@Xi.B q.d.C.D.N.m.#.L.oX@XXXXXXXXXXX@XXX@X@XXXXXoX@XoXM = b y N c zXzXzXzXzXzX",
"zXzXzXzXzXzXzX!.&Xf F z.m.V.D.l.e.8.B 3.6XdXuXc.X K.H.H.t + >XaXdX#X#.C D r.M.D.C.b.c.8XsXfXsXsXsXfXaXuXwXuXsXfXaXhXuX*X@ y.D =...zXzXzXzXzXzX",
"zXzXzXzXzXzXzX!.O.b z.b.V.D.l.e.q.V 3.6XpXgX8X#.; Q././.H.  *XsXgXeX#X;.C 8.r.M.D.B.z.v.8XgXgXfXjXsX;X>.9.s.,XgXhXlXaX-X@ y.q.=...zXzXzXzXzXzX",
"zXzXzXzXzXzXzXo.7.j.m.D.V.l.r.8.V {.6XsXfXjX8X9.; Q.~./._.  {.sXjXsXwX1X:.V q.r.m.D.B.t.v.8XsXlXiX<XN t K.t M ,XaXkXuX*X@ y.q.=._ zXzXzXzXzXzX",
"zXzXzXzXzXzXzX' 1.n.V.D.l.y.D V {.6XpXfXfXhXuX:X= M P.J.v 1 2XsXhXfXsXwX1X;.B q.h.B.D.N.r.{.sXkX9X>.K.).(.Q.K.8 yXkXuX*X@ y.D =._ zXzXzXzXzXzX",
"zXzXzXzXzXzXzX' 1.D.D.l.q.0.A 3.4XpXfXfXfXfXfXwX}.O     8 1XsXfXfXfXfXfXwX@X;.8.8.r.C.A.l.*XiXkX9X;..X/.^.~..XS yXkXuX=X@ y.e.-.) zXzXzXzXzXzX",
"zXzXzXzXzXzXzX' v.F.l.r.8.B 3.6XrXhXfXfXfXfXfXgXrX:X4.{.1XsXfXfXfXsXfXfXfXwX#Xi.B 8.h.m.C.=XsXkX9Xm .X/.~.)..XS yXkXuX=X@ r.D =.) zXzXzXzXzXzX",
"zXzXzXzXzXzXzX+.1.b.e.q.B {.4XdXkXhXfXfXfXfXfXlXhXuXwXwXdXgXhXfXfXfXsXhXjXgXrX#X;.q.q.t.h.=XsXkXyX=Xv P..XK.L.*XaXkXuX*X@ t.D =.) zXzXzXzXzXzX",
"zXzXzXzXzXzXzX+.<.q.e.B 3.6XdXaXuXpXfXfXfXfXhXuX2X:X>X>X,X8XsXfXfXfXhXsXuXyXsXrX#Xi.B q.B =XsXgXdXyX=Xm n m }.uXfXjXaX*X@ t.e.=.) zXzXzXzXzXzX",
"zXzXzXzXzXzXzX+.<.D t.O :XrXyX-Xx.-X8XhXhXhX9X-Xi.O O O < x.,XiXhXjXsX3X*Xx.3XiXeX:.B w.V {.aXhXhXhXqX1X1X4XqXfXfXjXuX=X@ y.e.=.) zXzXzXzXzXzX",
"zXzXzXzXzXzXzX+.<.w.y.O 1XyX*X0 e 0 4.9XhX9Xc.o V 3 ; 5 7 O O >XiXfX3Xn 0 0 v <XyXx.V y.A {.0XtXqXqXeXtXeXeXeXqX0XwX8X5.@ r.e.=.) zXzXzXzXzXzX",
"zXzXzXzXzXzXzX+.<.D w.V ;X;X2 Q./.H.M *XqXc.@ 7 2 ; ; ; ; 1 V O 3X8X/ K.(.(.J.m 2Xc.0.8.A 2.+X%X+X#X#X#X%X#X#X#X#X%X+X2.B y.D -.) zXzXzXzXzXzX",
"zXzXzXzXzXzXzX+.<.w.y.S ;X>Xb ).~.).L.*X1XS + 1 2 : : : : 1 3 o c.>Xx.P./.^..Xi.2X5.B w.A 2.OXOX+X+X+X+X+XOX+X+X+X+XOX2.B y.D =.) zXzXzXzXzXzX",
"zXzXzXzXzXzXzX+.<.w.w.S ;X:Xv ).~.).L.*X1X#.. 1 : : : : 6 3 3 o *X;Xx..X/.~..X^ 2Xc.A y.A n _.'.].].[.[.].].].].`.]._.v 8.r.e.-._ zXzXzXzXzXzX",
"zXzXzXzXzXzXzX+.<.q.y.V ;X4Xm P.H.J.L.1X3X#.. 1 6 : : : : 3 3 o c.2X:XN H.P.K.*X8X5.B y.A - [ W.[ W.{ { { ] { ] { } [ $.C w.Z <...zXzXzXzXzXzX",
"zXzXzXzXzXzXzX+.<.w.y.O 1XpX1Xm 6 8 1XpX3X7 . 5 : : : 6 : 3 : o x.8XuX{.8 3 {.8XaXx.@ t.0.$...( zX . . . . . . . . . .6.#.#.#.6. .zXzXzXzXzXzX",
"zXzXzXzXzXzXzX+.<.w.t.O ,XhXfX8X1X4XaXjX2X7 + 1 6 : : : 8 : 8 O :.yXjXqX1X1XqXjXaXx.V t.e.&.zXzXzXzXzXzXzXzXzXzXzXzXzXX._ ' } ..zXzXzXzXzXzXzX",
"zXzXzXzXzXzXzX+.<.D y.< =X0X0X0X0X0X0XqX:X7 + 5 > : 3 3 > 3 3 O :.4XwX0X0X0XeXqX7X:.B y.q.&.zXzXzXzXzXzXzXzXzXzXzXzXzXzXzXzXzXzXzXzXzXzXzXzXzX",
"zXzXzXzXzXzXzX+.<.w.y.V {.%X$X$X$X$X$X%X}.6 ; 2 < 3 3 3 3 3 3 < >. X$X$X$X$X$X$X#X2.B y.0.,.zXzXzXzXzXzXzXzXzXzXzXzXzXzXzXzXzXzXzXzXzXzXzXzXzX",
"zXzXzXzXzXzXzX+.<.q.y.S |.OX+XOXOXOX+X+X|.7 , ; > > , > > > > > m |.+XOXOXOXOXOX|.m 8.w.0.&.zXzXzXzXzXzXzXzXzXzXzXzXzXzXzXzXzXzXzXzXzXzXzXzXzX",
"zXzXzXzXzXzXzX6.#.q.t.V n _.[.[.[._.'.`.c < < ; , : , , : , ; V 5 _.].`.`.`.].]._.8 8.t.0.=.zXzXzXzXzXzXzXzXzXzXzXzXzXzXzXzXzXzXzXzXzXzXzXzXzX",
"zXzXzXzXzXzXzX+.4.w.t.A - [ W.[ ] ] ] ] - > 5 $.$.$.$.$.$.$.- < 3 ] { ] ] ] ] { [ 5 w.t.e.&.zXzXzXzXzXzXzXzXzXzXzXzXzXzXzXzXzXzXzXzXzXzXzXzXzX",
"zXzXzXzXzXzXzXE.7.A A <.+. ...R.E.E.R.X.O.%.| o.E.E.X.E.E.E.o.%.%.O.R.X.X.X.X.R.E.&.s.A 1.6.zXzXzXzXzXzXzXzXzXzXzXzXzXzXzXzXzXzXzXzXzXzXzXzXzX",
"zXzXzXzXzXzXzXzXO.%.%.@.E.zXzXzXzXzXzXzXzXzXzXzXzXzXzXzXzXzXzXzXzXzXzXzXzXzXzXzXzXO.| %.+.E.zXzXzXzXzXzXzXzXzXzXzXzXzXzXzXzXzXzXzXzXzXzXzXzXzX",
"zXzXzXzXzXzXzXzXzXzXzXzXzXzXzXzXzXzXzXzXzXzXzXzXzXzXzXzXzXzXzXzXzXzXzXzXzXzXzXzXzXzXzXzXzXzXzXzXzXzXzXzXzXzXzXzXzXzXzXzXzXzXzXzXzXzXzXzXzXzXzX",
"zXzXzXzXzXzXzXzXzXzXzXzXzXzXzXzXzXzXzXzXzXzXzXzXzXzXzXzXzXzXzXzXzXzXzXzXzXzXzXzXzXzXzXzXzXzXzXzXzXzXzXzXzXzXzXzXzXzXzXzXzXzXzXzXzXzXzXzXzXzXzX",
"zXzXzXzXzXzXzXzXzXzXzXzXzXzXzXzXzXzXzXzXzXzXzXzXzXzXzXzXzXzXzXzXzXzXzXzXzXzXzXzXzXzXzXzXzXzXzXzXzXzXzXzXzXzXzXzXzXzXzXzXzXzXzXzXzXzXzXzXzXzXzX",
"zXzXzXzXzXzXzXzXzXzXzXzXzXzXzXzXzXzXzXzXzXzXzXzXzXzXzXzXzXzXzXzXzXzXzXzXzXzXzXzXzXzXzXzXzXzXzXzXzXzXzXzXzXzXzXzXzXzXzXzXzXzXzXzXzXzXzXzXzXzXzX",
"zXzXzXzXzXzXzXzXzXzXzXzXzXzXzXzXzXzXzXzXzXzXzXzXzXzXzXzXzXzXzXzXzXzXzXzXzXzXzXzXzXzXzXzXzXzXzXzXzXzXzXzXzXzXzXzXzXzXzXzXzXzXzXzXzXzXzXzXzXzXzX",
"zXzXzXzXzXzXzXzXzXzXzXzXzXzXzXzXzXzXzXzXzXzXzXzXzXzXzXzXzXzXzXzXzXzXzXzXzXzXzXzXzXzXzXzXzXzXzXzXzXzXzXzXzXzXzXzXzXzXzXzXzXzXzXzXzXzXzXzXzXzXzX",
"zXzXzXzXzXzXzXzXzXzXzXzXzXzXzXzXzXzXzXzXzXzXzXzXzXzXzXzXzXzXzXzXzXzXzXzXzXzXzXzXzXzXzXzXzXzXzXzXzXzXzXzXzXzXzXzXzXzXzXzXzXzXzXzXzXzXzXzXzXzXzX",
"zXzXzXzXzXzXzXzXzXzXzXzXzXzXzXzXzXzXzXzXzXzXzXzXzXzXzXzXzXzXzXzXzXzXzXzXzXzXzXzXzXzXzXzXzXzXzXzXzXzXzXzXzXzXzXzXzXzXzXzXzXzXzXzXzXzXzXzXzXzXzX"
};
