/* XPM */
static char *result[] = {
/* columns rows colors chars-per-pixel */
"71 71 195 2 ",
"   c #5C2518",
".  c #4E342F",
"X  c #4F3430",
"o  c #613427",
"O  c #5B453E",
"+  c #68504C",
"@  c #7F6551",
"#  c #833F22",
"$  c #AF5619",
"%  c #AA5312",
"&  c #A94F09",
"*  c #8C4326",
"=  c #86482E",
"-  c #944F2E",
";  c #844D3B",
":  c #8B4C34",
">  c #87513D",
",  c #8B533E",
"<  c #895135",
"1  c #90573F",
"2  c #91583F",
"3  c #9A5839",
"4  c #A3572D",
"5  c #A85B35",
"6  c #B25F36",
"7  c #BB652E",
"8  c #B5622C",
"9  c #AE633D",
"0  c #B36235",
"q  c #BD6A3A",
"w  c #CC763E",
"e  c #8D5541",
"r  c #8E5841",
"t  c #915740",
"y  c #935A43",
"u  c #9B5E45",
"i  c #975D48",
"p  c #995F49",
"a  c #A05F42",
"s  c #84654E",
"d  c #9D6146",
"f  c #9D624A",
"g  c #8B665F",
"h  c #9B6C58",
"j  c #A46345",
"k  c #AD6544",
"l  c #AE6946",
"z  c #A2654C",
"x  c #AA664B",
"c  c #A5694E",
"v  c #AB6A4C",
"b  c #B36542",
"n  c #B16947",
"m  c #B36C4A",
"M  c #B86E4B",
"N  c #B96D46",
"B  c #BD7144",
"V  c #B6704D",
"C  c #BA724E",
"Z  c #A76A50",
"A  c #AA6C51",
"S  c #AD7558",
"D  c #B47253",
"F  c #BC7652",
"G  c #BA7855",
"H  c #BD7B5B",
"J  c #8C6B61",
"K  c #9C7463",
"L  c #A97D6A",
"P  c #BE7E64",
"I  c #CC7A4C",
"U  c #C47648",
"Y  c #D17E47",
"T  c #C37A53",
"R  c #CB7D53",
"E  c #C17E5A",
"W  c #BB855E",
"Q  c #AA8262",
"!  c #AE846F",
"~  c #BE8865",
"^  c #A88A7F",
"/  c #B89270",
"(  c #BC997B",
")  c #D4824E",
"_  c #C5835E",
"`  c #CC845C",
"'  c #CC885F",
"]  c #D58655",
"[  c #D2855C",
"{  c #D2895E",
"}  c #DA8859",
"|  c #E18E56",
" . c #E38D5B",
".. c #E4935C",
"X. c #E9925C",
"o. c #C58563",
"O. c #CD8661",
"+. c #CC8A62",
"@. c #C58966",
"#. c #D48D63",
"$. c #D98E63",
"%. c #D28E6C",
"&. c #C8966C",
"*. c #DB9266",
"=. c #DC9569",
"-. c #DD9A6D",
";. c #D69269",
":. c #C19570",
">. c #C29C78",
",. c #D39A72",
"<. c #DC9A75",
"1. c #DD9E7B",
"2. c #D89777",
"3. c #E39663",
"4. c #E79964",
"5. c #E19669",
"6. c #E4996B",
"7. c #E49E74",
"8. c #E09F79",
"9. c #D4A07D",
"0. c #DCA57E",
"q. c #E9A26A",
"w. c #E5A275",
"e. c #EAA573",
"r. c #EDA976",
"t. c #E6A579",
"y. c #E8A77A",
"u. c #EBAA7C",
"i. c #F2AB76",
"p. c #F0A474",
"a. c #EBB27F",
"s. c #AA9C94",
"d. c #BDA898",
"f. c #C89F8B",
"g. c #C4A18D",
"h. c #D8AA8B",
"j. c #C3A394",
"k. c #CBA594",
"l. c #D0A794",
"z. c #D4AA94",
"x. c #DAAB93",
"c. c #D8A790",
"v. c #D7B29E",
"b. c #DBB29B",
"n. c #EDAD82",
"m. c #E3AE89",
"M. c #E5B287",
"N. c #EBB485",
"B. c #E7B689",
"V. c #ECB689",
"C. c #EEBC8F",
"Z. c #F3B484",
"A. c #F3BA8A",
"S. c #F8BE8E",
"D. c #F5B78A",
"F. c #EEBD90",
"G. c #E2B49B",
"H. c #E7B696",
"J. c #F5BF91",
"K. c #C6B2A4",
"L. c #CBB8A9",
"P. c #D5B4A2",
"I. c #DAB6A3",
"U. c #D2BAAC",
"Y. c #DBBAA8",
"T. c #C5BDB6",
"R. c #D8BFB0",
"E. c #FAC08F",
"W. c #EDC199",
"Q. c #F5C293",
"!. c #FBC595",
"~. c #FEC897",
"^. c #FFCB99",
"/. c #F5C499",
"(. c #CFC1B7",
"). c #CDC3BB",
"_. c #D3C2B6",
"`. c #D1C5BC",
"'. c #D2C8BE",
"]. c #EAC3AB",
"[. c #F2C7AC",
"{. c #EED4BA",
"}. c #FAD8BA",
"|. c #CECCC6",
" X c #CFCFC8",
".X c #D2CCC4",
"XX c #CED1CD",
"oX c #D2D3CD",
"OX c #DFD5C8",
"+X c #CDD5D1",
"@X c #D2D4D0",
"#X c #EADCCB",
"$X c #F2DDCA",
"%X c #F8E2CD",
"&X c None",
/* pixels */
"&X&X&X&X&X&X&X&X&X&X&X&X&X&X&X&X&X&X&X&X&X&X&X&X&X&X&X&X&X&X&X&X&X&X&X&X&X&X&X&X&X&X&X&X&X&X&X&X&X&X&X&X&X&X&X&X&X&X&X&X&X&X&X&X&X&X&X&X&X&X&X",
"&X&X&X&X&X&X&X&X&X&X&X&X&X&X&X&X&X&X&X&X&X&X&X&X&X&X&X&X&X&X&X&X&X&X&X&X&X&X&X&X&X&X&X&X&X&X&X&X&X&X&X&X&X&X&X&X&X&X&X&X&X&X&X&X&X&X&X&X&X&X&X",
"&X&X&X&X&X&X&X&X&X&X&X&X&X&X&X&X&X&X&X&X&X&X&X&X&X&X&X&X&X&X&X&X&X&X&X&X&X&X&X&X&X&X&X&X&X&X&X&X&X&X&X&X&X&X&X&X&X&X&X&X&X&X&X&X&X&X&X&X&X&X&X",
"&X&X&X&X&X&X&X&X&X&X&X&X&X&X&X&X&X&X&X&X&X&X&X&X&X&X&X&X&X&X&X&X&X&X&X&X&X&X&X&X&X&X&X&X&X&X&X&X&X&X&X&X&X&X&X&X&X&X&X&X&X&X&X&X&X&X&X&X&X&X&X",
"&X&X&X&X&X&X&X&X&X&X&X&X&X&X&X&X&X&X&X&X&X&X&X&X&X&X&X&X&X&X&X&X&X&X&X&X&X&X&X&X&X&X&X&X&X&X&X&X&X&X&X&X&X&X&X&X&X&X&X&X&X&X&X&X&X&X&X&X&X&X&X",
"&X&X&X&X&X&X&X&X&X&X&X&X&X&X&X&X&X&X&X&X&X&X&X&X&X&X&X&X&X&X&X&X&X&X&X&X&X&X&X&X&X&X&X&X&X&X&X&X&X&X&X&X&X&X&X&X&X&X&X&X&X&X&X&X&X&X&X&X&X&X&X",
"&X&X&X&X&X&X&X&X&X&X&X&X&X&X&X&X&X&X&X&X&X&X&X&X&X&X&X&X&X&X&X&X&X&X&X&X&X&X&X&X&X&X&X&X&X&X&X&X&X&X&X&X&X&X&X&X&X&X&X&X&X&X&X&X&X&X&X&X&X&X&X",
"&X&X&X&X&X&X&X&X&X&X&X&X&X&X&X&X&X&X&X&X&X&X&X&X&X&X&X&X&X&X&X&X&X&X&X&X&X&X&X&X&X&X&X&X&X&X&X&X&X&X&X&X&X&X&X&X&X&X&X&X&X&X&X&X&X&X&X&X&X&X&X",
"&X&X&X&X&X&X&X&X&X&X&X&X&X&X&X&X&X&X&X&X&X&X&X&X&X&X&X&X&X&X&X&X&X&X&X&X&X&X&X&X&X&X&X&X&X&X&X&X&X&X&X&X&X&X&X&X&X&X&X&X&X&X&X&X&X&X&X&X&X&X&X",
"&X&X&X&X&X&X&X&X&X&X&X&X&X&X&X&X&X&X&X&X&X&X&X&X&X&X&X&X&X&X&X&X&X&X&X&X&X&X&X&X&X&X&X&X&X&X&X&X&X&X&X&X&X&X&X&X&X&X&X&X&X&X&X&X&X&X&X&X&X&X&X",
"&X&X&X&X&X&X&X&X&X&X&X&X&X&X&X&X&X&X&X&X&X&X&X&X&X&X&X&X&X&X&X&X&X&X&X&X&X&X&X&X&X&X&X&X&X&X&X&X&X&X&X&X&X&X&X&X&X&X&X&X&X&X&X&X&X&X&X&X&X&X&X",
"&X&X&X&X&X&X&X&X&X&X&X&X&X&X&X&X&X&X&X&X&X&X&X&X&X&X&X&X&X&X&X&X&X&X&X&X&X&X&X&X&X&X&X&X&X&X&X&X&X&X&X&X&X&X&X&X&X&X&X&X&X&X&X&X&X&X&X&X&X&X&X",
"&X&X&X&X&X&X&X&X&X&X&X&X&X&X&X&X&X&X&X&X&X&X&X&X&X&X&Xy t e ; ; , e e e e , , ; ; e t t &X&X&X&X&X&X&X&X&X&X&X&X&X&X&X&X&X&X&X&X&X&X&X&X&X&X&X",
"&X&X&X&X&X&X&X&X&X&X&X&X&X&X&X&X&X&X&X&X&X&X&X&X&X&X&Xy a z u f u i u y i i u d j z f t &X&X&X&X&X&X&X&X&X&X&X&X&X&X&X&X&X&X&X&X&X&X&X&X&X&X&X",
"&X&X&X&X&X&X&X&X&X&X&X&X&X&X&X&X&X&X&X&X&X&X&X&X&X&X, y v G E E F v v x l m G E E G v i e &X&X&X&X&X&X&X&X&X&X&X&X&X&X&X&X&X&X&X&X&X&X&X&X&X&X",
"&X&X&X&X&X&X&X&X&X&X&X&X&X&X&X&X&X&X&X&X&X&X&X&Xe e e t z E #.$.` C l l n C _ $.#.H z r e e 2 &X&X&X&X&X&X&X&X&X&X&X&X&X&X&X&X&X&X&X&X&X&X&X&X",
"&X&X&X&X&X&X&X&X&X&X&X&X&X&X&X&X&X&X&X&X&X&X&X&Xy z z z A o.$.5.[ T n n n F { 5.*.O.A z a z y &X&X&X&X&X&X&X&X&X&X&X&X&X&X&X&X&X&X&X&X&X&X&X&X",
"&X&X&X&X&X&X&X&X&X&X&X&X&X&X&X&X&X&X&X&X&X&X&Xe y A D G E O.#.{ ` C m m m C R { #.O.E H D c i t &X&X&X&X&X&X&X&X&X&X&X&X&X&X&X&X&X&X&X&X&X&X&X",
"&X&X&X&X&X&X&X&X&X&X&X&X&X&X&X&X&X&X&X&X&X2 y i i A H #.$.{ T F C m m m m C C F T #.$.+.P A u y y t &X&X&X&X&X&X&X&X&X&X&X&X&X&X&X&X&X&X&X&X&X",
"&X&X&X&X&X&X&X&X&X&X&X&X&X&X&X&X&X&X&X&X&X2 d z u Z _ *.6.{ F n n m V m m m l l C { 6.*.E A u z f t &X&X&X&X&X&X&X&X&X&X&X&X&X&X&X&X&X&X&X&X&X",
"&X&X&X&X&X&X&X&X&X&X&X&X&X&X&X&X&X&X&X&X&X2 z z p A O.5.6.{ M k k m m V M m x k C { 5.5.O.D z x j e &X&X&X&X&X&X&X&X&X&X&X&X&X&X&X&X&X&X&X&X&X",
"&X&X&X&X&X&X&X&X&X&X&X&X&X&X&X&X&X&X&X&X&X, u z p A o.5.5.#.V k l m m m m m l k C { 5.=.[ C x x d , &X&X&X&X&X&X&X&X&X&X&X&X&X&X&X&X&X&X&X&X&X",
"&X&X&X&X&X&X&X&X&X&X&X&X&X&X&X&X&X&X&X&X&Xt u u p A E #.$.#.T M m V C m M m m M T { *.$.` C l l u , &X&X&X&X&X&X&X&X&X&X&X&X&X&X&X&X&X&X&X&X&X",
"&X&X&X&X&X&X&X&X&X&X&X&X&X&X&X&X&X&X&X&Xy i u z f Z S E ` ` [ ` T C m n m V T ` ` O.{ ` T F n v z t y &X&X&X&X&X&X&X&X&X&X&X&X&X&X&X&X&X&X&X&X",
"&X&X&X&X&X&X&X&X&X&X&X&X&X&X&X&X&X&Xy y i f f z z z Z Z G _ *.*.[ F n n n C ` *.$.{ T F M M n v z i u 2 2 &X&X&X&X&X&X&X&X&X&X&X&X&X&X&X&X&X&X",
"&X&X&X&X&X&X&X&X&X&X&X&X&X&X&X&X&X&Xt j Z z z z z f p i z W ;.*.[ C l l l F { =.$.` V l n m m v z z z z t &X&X&X&X&X&X&X&X&X&X&X&X&X&X&X&X&X&X",
"&X&X&X&X&X&X&X&X&X&X&X&X&X&X&X&X&X&Xy z x c z z z f p p z D W H V j d k m C ` [ { T M l v v v v c z v z y &X&X&X&X&X&X&X&X&X&X&X&X&X&X&X&X&X&X",
"&X&X&X&X&X&X&X&X&X&X&X&X&X&X&X&X&X&Xy u z z z h z f h z f d j d y r 2 j m C C T T F M n v z z z z z z d y &X&X&X&X&X&X&X&X&X&X&X&X&X&X&X&X&X&X",
"&X&X&X&X&X&X&X&X&X&X&X&X&X&X&X&X&X&Xt i z z z z z z f z f i u y y d d x l m n l n n m m Z z f Z z z z i y &X&X&X&X&X&X&X&X&X&X&X&X&X&X&X&X&X&X",
"&X&X&X&X&X&X&X&X&X&X&X&X&X&X&X&X&X&X2 z x z z z z h i y d f A V G G V v j u u 3 u x v A z f h f z z x z t &X&X&X&X&X&X&X&X&X&X&X&X&X&X&X&X&X&X",
"&X&X&X&X&X&X&X&X&X&X&X&X&X&X&X&X&X&Xy x v z z Z z f i e y A ` #.$.#.` D u , ; , t u z Z c z Z z z c Z x y &X&X&X&X&X&X&X&X&X&X&X&X&X&X&X&X&X&X",
"&X&X&X&X&X&X&X&X&X&X&X&X&X&X&X&X&X&Xt y f f f z f f y y c _ =.e.e.e.=._ v 2 2 d f p p f f f f f z f u y r &X&X&X&X&X&X&X&X&X&X&X&X&X&X&X&X&X&X",
"&X&X&X&X&X&X&X&X&X&X&X&X&X&X&X&X&X&X&Xt y u f f i y 3 9 U =.a.a.D.a.y.;.W C F E G k - * = r i f d i y t &X&X&X&X&X&X&X&X&X&X&X&X&X&X&X&X&X&X&X",
"&X&X&X&X&X&X&X&X&X&X&X&X&X&X&X&X&X&X&X&Xy y y y , 2 l I *.r.S.Q.!.E.N.t.*.{ $.=.{ V - * = > t d i t t &X&X&X&X&X&X&X&X&X&X&X&X&X&X&X&X&X&X&X&X",
"&X&X&X&X&X&X&X&X&X&X&X&X&X&X&X&X&X&X&X&X&X, y u 3 Z @.1.N.N.B.Q.Q.Q.Q.Z.y.6.5.5.%.~ ! K h f j j i e &X&X&X&X&X&X&X&X&X&X&X&X&X&X&X&X&X&X&X&X&X",
"&X&X&X&X&X&X&X&X&X&X&X&X&X&X&X&X&X&X&X&X&X, z M F @.x.].].G.9.,.M.E.Q.E.D.y.*.` ~ g.K.K.g.o.F C j , &X&X&X&X&X&X&X&X&X&X&X&X&X&X&X&X&X&X&X&X&X",
"&X&X&X&X&X&X&X&X&X&X&X&X&X&X&X&X&X&X&X&X&X, x I ] 0.].$X#XL.! S &.B.~.~.E.N.+.l Q K.OX#X].<.] I v , &X&X&X&X&X&X&X&X&X&X&X&X&X&X&X&X&X&X&X&X&X",
"&X&X&X&X&X&X&X&X&X&X&X&X&X&X&X&X&X&X&X&X&X> d B ) w.[.%X#XK.g = W M.~.^.^.B.~ < J L.#X%X[.7.] B u ; &X&X&X&X&X&X&X&X&X&X&X&X&X&X&X&X&X&X&X&X&X",
"&X&X&X&X&X&X&X&X&X&X&X&X&X&X&X&X&X&X&X&X&X&X&X4 0 ' H.}.{.d.+   Q a.^.^.^.B.Q o + j.{.}.H.+.0 4 &X&X&X&X&X&X&X&X&X&X&X&X&X&X&X&X&X&X&X&X&X&X&X",
"&X&X&X&X&X&X&X&X&X&X&X&X&X&X&X&X&X&X&X&X&X&X&X&X* v 0.Q.W.( O . Q M.~.^.~.B.Q . O ( W./.0.V * &X&X&X&X&X&X&X&X&X&X&X&X&X&X&X&X&X&X&X&X&X&X&X&X",
"&X&X&X&X&X&X&X&X&X&X&X&X&X&X&X&X&X&X&X&X&X&X&X&XJ L 1.N.a.&.s s / M.!.^.~.B./ @ s &.a.a.9.L J &X&X&X&X&X&X&X&X&X&X&X&X&X&X&X&X&X&X&X&X&X&X&X&X",
"&X&X&X&X&X&X&X&X&X&X&X&X&X&X&X&X&X&X&X&X&X&Xv s.s.j.z.t.q.-./ >.h.Q.!.~.~.C.h.>.:.-.q.y.z.j.s.^ S &X&X&X&X&X&X&X&X&X&X&X&X&X&X&X&X&X&X&X&X&X&X",
"&X&X&X&X&X&X&X&X&X&X&X&X&X&X&X&X&X&X&X&X&X$ P j.T.`.P.1...e.M.C.Q.Q.!.Q.Q.Q.Q.C.B.e...0.I.`.T.j.P $ &X&X&X&X&X&X&X&X&X&X&X&X&X&X&X&X&X&X&X&X&X",
"&X&X&X&X&X&X&X&X&X&X&X&X&X&X&X&X&X&X&X&X8 7 %.I..XoX_.x.0.u.S.E.E.E.N.E.A.A.S.Q.A.u.w.h._.@X.XI.%.7 8 &X&X&X&X&X&X&X&X&X&X&X&X&X&X&X&X&X&X&X&X",
"&X&X&X&X&X&X&X&X&X&X&X&X&X&X&X&X&X&X&XM U w =.I..X@X.XU.b.m.n.i.e.r.e.e.y.r.r.i.N.m.v.U..X@X.XY.2.w w M &X&X&X&X&X&X&X&X&X&X&X&X&X&X&X&X&X&X&X",
"&X&X&X&X&X&X&X&X&X&X&X&X&X&X&X&X&X&Xm U I ) 7.b.`.XXXX X_.b.0.......3.3.3.3.....8.b._.|.XX X`.b.<.) R M m &X&X&X&X&X&X&X&X&X&X&X&X&X&X&X&X&X&X",
"&X&X&X&X&X&X&X&X&X&X&X&X&X&X&X&X&X&XM R 3.6.y.G.R.).|. X|.U.h.<.9.9.0.0.1.1.<.<.h.U..X X X|.U.G.y.4.3.R M &X&X&X&X&X&X&X&X&X&X&X&X&X&X&X&X&X&X",
"&X&X&X&X&X&X&X&X&X&X&X&X&X&X&X&X&X&XM  .p.i.D.H.G.P.R.|.|.`.U.v.v.v.v.P.P.P.P.P.U.`.|.|.R.P.G.V.D.Z.p. .N &X&X&X&X&X&X&X&X&X&X&X&X&X&X&X&X&X&X",
"&X&X&X&X&X&X&X&X&X&X&X&X&X&X&X&X&X&Xb ` w.A.J.Z.w.1.b.`. X|..X`.`..X).|.).|.).|..X|. X`.P.1.7.Z.J.A.t.` n &X&X&X&X&X&X&X&X&X&X&X&X&X&X&X&X&X&X",
"&X&X&X&X&X&X&X&X&X&X&X&X&X&X&X&X&X&X9 G ,.M.A.i.| #.l.(.XXXXXXXX XXXXX XXX X X@X XXXoXT.z.$.| r.D.m.,.F 9 &X&X&X&X&X&X&X&X&X&X&X&X&X&X&X&X&X&X",
"&X&X&X&X&X&X&X&X&X&X&X&X&X&X&X&X&X&X&X&X@.,.w.6.Y _ k.).XX+XXXXXXX@XoXoX@XXXoX XXX+X@X).k.O.Y  .w.,.@.&X&X&X&X&X&X&X&X&X&X&X&X&X&X&X&X&X&X&X&X",
"&X&X&X&X&X&X&X&X&X&X&X&X&X&X&X&X&X&X&X&X&XG R I q P j.(.XXoXXX.X X XoX X X X X X XXX@XT.j.H w I R G &X&X&X&X&X&X&X&X&X&X&X&X&X&X&X&X&X&X&X&X&X",
"&X&X&X&X&X&X&X&X&X&X&X&X&X&X&X&X&X&X&X&X&Xb b 6 0 H f.U.`.`._._.`.`.R.T.R.T._._.`.'.`.U.f.E 6 6 n b &X&X&X&X&X&X&X&X&X&X&X&X&X&X&X&X&X&X&X&X&X",
"&X&X&X&X&X&X&X&X&X&X&X&X&X&X&X&X&X&X&X&X&X&X&X5 9 E 2.x.b.G.b.b.z.k.k.k.k.l.x.b.b.G.G.h.f.R 9 5 &X&X&X&X&X&X&X&X&X&X&X&X&X&X&X&X&X&X&X&X&X&X&X",
"&X&X&X&X&X&X&X&X&X&X&X&X&X&X&X&X&X&X&X&X&X&X&X&Xm R #.6.7.7.7.5.#.o.E H E o.%.6.7.7.7.6.$.R m &X&X&X&X&X&X&X&X&X&X&X&X&X&X&X&X&X&X&X&X&X&X&X&X",
"&X&X&X&X&X&X&X&X&X&X&X&X&X&X&X&X&X&X&X&X&X&X&X&Xm C T ]  .X. .} I 6 % & % 7 U ] | X. .] T C m &X&X&X&X&X&X&X&X&X&X&X&X&X&X&X&X&X&X&X&X&X&X&X&X",
"&X&X&X&X&X&X&X&X&X&X&X&X&X&X&X&X&X&X&X&X&X&X&X&X&X&XC R  .X. .R U &X&X&X&X&XU R X.X. .R M &X&X&X&X&X&X&X&X&X&X&X&X&X&X&X&X&X&X&X&X&X&X&X&X&X&X",
"&X&X&X&X&X&X&X&X&X&X&X&X&X&X&X&X&X&X&X&X&X&X&X&X&X&X&XC R ] R C m &X&X&X&X&XM C R ] R M &X&X&X&X&X&X&X&X&X&X&X&X&X&X&X&X&X&X&X&X&X&X&X&X&X&X&X",
"&X&X&X&X&X&X&X&X&X&X&X&X&X&X&X&X&X&X&X&X&X&X&X&X&X&X&Xn m m m n &X&X&X&X&X&X&Xn m m n v &X&X&X&X&X&X&X&X&X&X&X&X&X&X&X&X&X&X&X&X&X&X&X&X&X&X&X",
"&X&X&X&X&X&X&X&X&X&X&X&X&X&X&X&X&X&X&X&X&X&X&X&X&X&X&X&X&X&X&X&X&X&X&X&X&X&X&X&X&X&X&X&X&X&X&X&X&X&X&X&X&X&X&X&X&X&X&X&X&X&X&X&X&X&X&X&X&X&X&X",
"&X&X&X&X&X&X&X&X&X&X&X&X&X&X&X&X&X&X&X&X&X&X&X&X&X&X&X&X&X&X&X&X&X&X&X&X&X&X&X&X&X&X&X&X&X&X&X&X&X&X&X&X&X&X&X&X&X&X&X&X&X&X&X&X&X&X&X&X&X&X&X",
"&X&X&X&X&X&X&X&X&X&X&X&X&X&X&X&X&X&X&X&X&X&X&X&X&X&X&X&X&X&X&X&X&X&X&X&X&X&X&X&X&X&X&X&X&X&X&X&X&X&X&X&X&X&X&X&X&X&X&X&X&X&X&X&X&X&X&X&X&X&X&X",
"&X&X&X&X&X&X&X&X&X&X&X&X&X&X&X&X&X&X&X&X&X&X&X&X&X&X&X&X&X&X&X&X&X&X&X&X&X&X&X&X&X&X&X&X&X&X&X&X&X&X&X&X&X&X&X&X&X&X&X&X&X&X&X&X&X&X&X&X&X&X&X",
"&X&X&X&X&X&X&X&X&X&X&X&X&X&X&X&X&X&X&X&X&X&X&X&X&X&X&X&X&X&X&X&X&X&X&X&X&X&X&X&X&X&X&X&X&X&X&X&X&X&X&X&X&X&X&X&X&X&X&X&X&X&X&X&X&X&X&X&X&X&X&X",
"&X&X&X&X&X&X&X&X&X&X&X&X&X&X&X&X&X&X&X&X&X&X&X&X&X&X&X&X&X&X&X&X&X&X&X&X&X&X&X&X&X&X&X&X&X&X&X&X&X&X&X&X&X&X&X&X&X&X&X&X&X&X&X&X&X&X&X&X&X&X&X",
"&X&X&X&X&X&X&X&X&X&X&X&X&X&X&X&X&X&X&X&X&X&X&X&X&X&X&X&X&X&X&X&X&X&X&X&X&X&X&X&X&X&X&X&X&X&X&X&X&X&X&X&X&X&X&X&X&X&X&X&X&X&X&X&X&X&X&X&X&X&X&X",
"&X&X&X&X&X&X&X&X&X&X&X&X&X&X&X&X&X&X&X&X&X&X&X&X&X&X&X&X&X&X&X&X&X&X&X&X&X&X&X&X&X&X&X&X&X&X&X&X&X&X&X&X&X&X&X&X&X&X&X&X&X&X&X&X&X&X&X&X&X&X&X",
"&X&X&X&X&X&X&X&X&X&X&X&X&X&X&X&X&X&X&X&X&X&X&X&X&X&X&X&X&X&X&X&X&X&X&X&X&X&X&X&X&X&X&X&X&X&X&X&X&X&X&X&X&X&X&X&X&X&X&X&X&X&X&X&X&X&X&X&X&X&X&X",
"&X&X&X&X&X&X&X&X&X&X&X&X&X&X&X&X&X&X&X&X&X&X&X&X&X&X&X&X&X&X&X&X&X&X&X&X&X&X&X&X&X&X&X&X&X&X&X&X&X&X&X&X&X&X&X&X&X&X&X&X&X&X&X&X&X&X&X&X&X&X&X",
"&X&X&X&X&X&X&X&X&X&X&X&X&X&X&X&X&X&X&X&X&X&X&X&X&X&X&X&X&X&X&X&X&X&X&X&X&X&X&X&X&X&X&X&X&X&X&X&X&X&X&X&X&X&X&X&X&X&X&X&X&X&X&X&X&X&X&X&X&X&X&X",
"&X&X&X&X&X&X&X&X&X&X&X&X&X&X&X&X&X&X&X&X&X&X&X&X&X&X&X&X&X&X&X&X&X&X&X&X&X&X&X&X&X&X&X&X&X&X&X&X&X&X&X&X&X&X&X&X&X&X&X&X&X&X&X&X&X&X&X&X&X&X&X"
};
