/* XPM */
static char *result[] = {
/* columns rows colors chars-per-pixel */
"71 71 70 1 ",
"  c #1FB555",
". c #24B856",
"X c #2AB857",
"o c #24BB5A",
"O c #33B957",
"+ c #34BC5B",
"@ c #3CBC5A",
"# c #44BD5B",
"$ c #4BBC5B",
"% c #54BD5B",
"& c #5BBD5B",
"* c #64BE5D",
"= c #6CBE5E",
"- c #3EC15E",
"; c #34C461",
": c #3BC461",
"> c #35C965",
", c #3BCA65",
"< c #3DCF6B",
"1 c #46C25D",
"2 c #4CC25D",
"3 c #53C25E",
"4 c #5BC25D",
"5 c #65C15F",
"6 c #6BC25F",
"7 c #72C15F",
"8 c #4AC762",
"9 c #40CB66",
"0 c #4ACD67",
"q c #46CE69",
"w c #4BCE68",
"e c #55C562",
"r c #5CC660",
"t c #5DCA64",
"y c #51CD69",
"u c #44D36D",
"i c #4BD46D",
"p c #53D36C",
"a c #5CD56D",
"s c #5AD86F",
"d c #63C561",
"f c #6DC461",
"g c #63CB63",
"h c #6CCC64",
"j c #62CD68",
"k c #75C562",
"l c #79C663",
"z c #75CA65",
"x c #7ACB65",
"c c #7DCF68",
"v c #6BD167",
"b c #64D56C",
"n c #6BD66C",
"m c #65D96F",
"M c #6CD96E",
"N c #72D167",
"B c #7ED067",
"V c #75D46A",
"C c #7CD36A",
"Z c #73D96E",
"A c #7DDA6E",
"S c #6EDC70",
"D c #76DC70",
"F c #78DB70",
"G c #81CF67",
"H c #81D56B",
"J c #83DC6E",
"K c #88DD6F",
"L c #84DE70",
"P c #88DF70",
/* pixels */
"JJJJJJJJJJJJJJJJJJJJJLJJJJJJJJJJJJLAJJJJJJJJJJJJJJJJJJJJJJJJJJJJLJJJJJJ",
"JJJJJJJJJJJJJJJAJJJJJJJJJJJJJJJJJJJJJJJJJJJJJJJJJJJJJJJJJJJJJJJJAJJJJJJ",
"JJJJJJJJJJJJJJJJJJJJJJJJJJJJJJJJJJJJJJLJJJJJJJJJJJJJJJJJJJJJJJJJJJJJJJJ",
"JJJJJJJJJJJJJJJJJJJJJJJJJJJJJJJJJJJJJJJJJJJJJJJJJJJJJJJJJJJJJJJJJJJJJJJ",
"JJJJJJJJJJJJJJJJJJJJJJJJJJJJJJJJJJJJJJJJJJJJJJJJJJJJJJJJJAJJJJJJJJJJJJJ",
"JJJJJJJJJJJJJJJJJJJJJJJJLAJJJJJJJJJJJJJJJJJJJJJJJJJJJJJJJJJJJJJJJJJJJJJ",
"JJJJJJJJJJJJJJJJJJJJJJJJJJJJJJJJJJJJJJJJJJJJJJJJJJJJJJJJJJJJJJJJJJJJJJJ",
"JJJJJJJJJJJJJJJJJJJJAJJJJJJJJJJJJJJJJJJJJJJJJJJJJJJJJAJJJJJJJJJJJJJJJJJ",
"JJJJJJJJJJJJJJJJJJJJJJJJJJJJJJJJJJJJJJJJJJJJJJJJJJJJJJJJJJJJJJJJJJJJJJJ",
"JJJJJJJJJJJJJJJJJJJJJJJJJJJJJJJJJJJJJJJJJJJJJJJJJJJJJJJJJJJJJJJJJJJJJJJ",
"JAJJJJJJJJJJJJJJJJJJJJJJJJJJJJJJJJJAJJJJJJJJJJJJJJJJJJJJJJJJJJJJJJJJJJJ",
"JLJJJJJJJJJJJJJJJJJJJJJJJJJJJJJJJJJLJJJJJAJJJJJPKKJJJJJJJJJJJJJJJJJJJLJ",
"JJJJJJJJJJJJJJJJJJJJJJJJJJJJJJJJJJJJJJJJJJJJJJAAAAJJJJJJJJJJJJJJJJJJJJJ",
"JJJLJJJJJJJJJJJJJJJJJJJJJJJJJJJJJJJJJJJJJJJPPAZmamZAJJJJJKKJPPJJJJJJJJJ",
"JJJJJJJJJJJJJJJJJJJJJJJJALJJJJJJJJJJJJJJJJJJJJZpuuaZJPJJKJJAAJJJJJJJJJJ",
"JJJJJJJJJJJJJJLAJJJJJJJJJJJJJJJJJJJJJJJJJJJJJJAMp:9aZAJJJAMnMMAJJJJJJJJ",
"JJJJJJJJJJJJJJJJJJJJJJJJJJJJJJJJJJJJJJJAJJJJJJPPv2;-aZJJJZsuuaZJJJJJJJJ",
"JJJJJJJJJJJJJJJJJJJJJJJJJJJJJJJJJJJJJJJJJJJJJJJHz41;0MJCNaiusMAJJJJJJJJ",
"JJJJJJJJJJJJJJJJJJJJJJJJJJJJJJAJJJJJJJJJJJJJJJHl774-1NJv2-,sZJJJJJJJJJJ",
"JJJJJJJJJJJJJJJAJJJJJJJJJJJJJJJJJJJJJJJJJJJJLJClG77&4NJgO;wvCJJJJJJJJJJ",
"JJJJAJJJJJJJJJJJJJJJJJJJJJJJJJJJJJJJJJJJJJJJJJJAGG777HJrO#hx7BJJLJJJJJJ",
"JJJJLJJJJJJJJJJJJJJJLJJJJJJJJJJJJJJJJJJJJJJJJJPJC7667JJh2&777CHJJJJJJJJ",
"JJJJJJJJJJJJJJJJJJJJJJJJJJJJJJJJJJJJJJJJJJJJJJPPC42$5VJN5*7xBHJJJJJJJJJ",
"JJJJJJJJJJJJJJJJLAJJJJJJJJJJJJJJJJJJJJJJJJJJJJJLv1XO3VJHx77BJJJJJJJLAJJ",
"JJJJJJJJJJJJJJJJJJJJJJJJJJJJJJJJJJJJJJJJJJJJJJFnp,:$5CJJHGCHJJJJJJJJJJJ",
"JJJJJJJJJJJJJJJJJJJJJJLAJJLJJJJJJJJJJJJJJJJJKJnpuuyhkCJLJJJJJJJJJJJJJJJ",
"JJJJJJJJJJJJJJJJJJJJJJJJJJJJJJJJJJJJJJJJJJJJJJAnbmnCCHJJJJJJJJJJJJJJJJJ",
"JJJJJJJJJJJJJJJJJJJJJJJJJJJJLAJJJJJJJJJJJJJJJJJAJFJJJJJJJJPJJJJJJJJJJJJ",
"JJJJJJJJJJJJJJJJJJJJJJJJJJJJJJJJJJJJJJJJJJJJJJJKKKJJPJJJJJJJJJJJJJJJJJJ",
"JJJJJJJJJJJJJJJJJJJJJJJJJJJJJJJJJJJJJJJJJJJJJJJJJJJJJJJJJJJJJJJJJJJJJJJ",
"JJJJAJJJJJJJJAJJJJJJJJJJJJJJJJJJJJJJJJAJJJJJJJJJJJJJJJJJJJJJJJJJJJJJJJJ",
"JJJJLJJJJJJJJJJJJJJJJJJJJJJJJJJJJJJJJJJJJJJJJJJJJJJJJJJJJJJJJJJJJJJJJJJ",
"JJJJJJJJJJJJJJJJJJJJJJJJJJJJJJJJJJJJJJJJJJJJJJJJJJJJJJJJJJJJJJJJJJJJJJJ",
"JJJJJJJJJJJJJJJJJJJJJJJJJJJJJJJJJJJJJJJJJAJJJJJJJJJJAJJJJJJLJJJJJJJJJJJ",
"JJJJJJJJJJJJJJJJJJJJJJJJJJJJJJJJJJJJJJJJJLJJJJJJJJJJJJJJJJJJJJJJJJJJJJJ",
"JJJJJJJJJJJJJJJJJJJJJJJJJJJJJJJJJJJJJJJJJJJJJJJJJJJJJJJJJJJJJJJJJJJJJJJ",
"JJJJJJJJJJJJJJJJJJJJJJJJAJJJJJJJJJJJJJJJJJJJJJJJJJJJJJJJJJJJJJJJJJJJJJJ",
"JJJJZZMZAJJJJJJJJJJJJJJJJJJJJJJJJJJJJJJJJJJJJJJJJJJJJJJJJJJJJJJJJJJJJJJ",
"JJKJMpipMAKJJJJJJJJJJJJJJJJJJJJJALJJJJJJJJJJJJJJJJJJJJJJJAJJJJJJJJJJJJJ",
"JJJJZau,pMAJJJJJJJJJJJJJJJJJJJJJJJJJJJJJJJJJJJJJJJJJJJJJJJJJJJJJJJJJJJJ",
"JJJJJAg--umAJJJJJJJJJJJJJJJJJJJJJJJJJJJALJJJJJJJJJJJJJJJJJJJJJJJJJJJJJJ",
"JJJJJJz$+>pZJJAAAJJJJJJJJJJJJJJJJJJJJJJJJJJJJJJJJJJJJJJJJJJJJJJJJJJJJJJ",
"JJJJHCk6%-8VJDmssMJJJJJJJJJJJJJJJJJJJJJJJJJJJJJJJJJJJKJKJJJJJJJJJJJJJJJ",
"JJJJCllk=#3VJmu<ibAJJJJJJJJJJJJJJJJJJJJJJJJLJLAJJJJJJAAAJLJJJJJJJJJJJJJ",
"JJJJCBcl7*6CAa::tNJKJJJJJJJJJJJJJJJJJJJJJJJJJJJJJJJJAZbmMZJJJJJJJJJJJJJ",
"JJJJJJCk7klJCr@%kcJJJJJJJJJJJJJJJJJJJJJJJJJJJJJJJJJKAmiuibAPJJJJJJJJJJJ",
"JJJJJJJCcGHJHh&5cHJJJJJJJJJJJJJJJJJJJJJJJJJJJJJJJJJKAZbu,wnALJKJAMnSVJJ",
"JJJJJJJJHJJJJzkcHJJJJJJJJJJJJJJJJJJJJJJJJJJJJJJJJJJJJPA4--imAJKJMpuibAJ",
"JJJJJJJJJJJLACGHPJJJJJJJJJJJJJJJJJJJJJJJJJJJJJJJJJJJJKC74->wZJCvpuuaZAK",
"JJJJJJJJJLLJJJHJJJJJJJJJJJJJJJJJJJJJJJJJJJJJJJJJJJJJHBl763-3AA51,imZJJJ",
"JJJJJJJJJJJJJLPJJJJJJJJJJJJJJJJJJJJJJJJJJJJJJJJJJJJJABxll6$5AV3.:aZHJJJ",
"JJJJJJJJJJJJJJJJJJJJJJJJJJJJJJJJJJJJJJJJJJJJJJJJJJJJJJCxk6*kJA2X$hclBJJ",
"JJJJJJJJJJJJJJJJJJJJJJJJJJJJJJJJJJJJJJJJJJJJJJJJJJJJJLJCB7lBJC41*kllCHJ",
"JJJJJJJJJJAJJJJJJJJJKJJJJJJJJJJJJJJJJJJJJJJJJJJJJJJJJJKACCHKJC65=kxBHJJ",
"JJJJJJJJJJJJJJJJJJJJJJJJJJJJJJJJJJJJJJJJJAJJJJJJJJJJJJJJJKJJJHB7kkCJPJJ",
"JJJJJJJJJJJJJJJJJKJFMnAJJJJJJJKJJJJJJJJJJJJJJJJJJJJJJJKJJLJJJJJCcCAJLJJ",
"JJJJJJJJJJJJJJJJJJJAapZLJJJJJJAJJJJJJJJJJJJJJJJJJJJJJLJLKJJJJJJHJJJJJJA",
"JJJJJJJJJJJJJJJJJKKVpuaDJJJPLZMMSAJJJJJJJJJJJJJJJJJPLFnMMZJJJJPJJJJJJJJ",
"JJJJJJJJJJJJJJJJJJJZsuusZJKKZbiiaZJJJJJJJJJJJJJJJJJPAnpupnAJJJJJJJJJJJJ",
"JJJJJJJJJJJJJJJJJKJAbw,qnJHVbiupmZJJJJJJJJJJJJPPKJACNpuisMJJJJJJJJJJJJJ",
"JJJJALJJJJJJJJJJJJJAzd#-vJN3-upMAJJJJJJJJJJJJPKJKPCd8,imZJJJJJJJJJJJJJJ",
"JJJJJJJJJJJJJJJJJJJHG7%3vJh@o0bZJJJJJJJJJJJJACVCHJV2X:anHJJJJJJJJJJJJJJ",
"JJJJJJJJJJJJJJJJJJJJKG7hCJg+OgzBBHJJJJJJJJPJv3#2hJV2X3hzcBHPJJJJJJJJJJJ",
"JJJJJJJJJJJJJJJJJJJJJAz7BKv2377x7BJJJJJJJJJZ5O OgCA3$*llzBJJJJJJJJJJJJJ",
"JJJJJJJJJJJJJAJJJJJADae4NJVd*7lxCJJJJJJJJJZa0;#%hAAf*=klcAJJJJJJJJJJJJA",
"JJAJJJJJJJJJJLJJJJJDaq+1hJHlkklHJJJJJJJJJAbiuijkGJJckklCJPJJJJJJJJJJJJJ",
"JJJJJJJJJJJJJJJJJPJAbe24hJHHccHJJJJJJJJJJAMbbSVHHJHHHcCALJJJJJJJJJJJJJJ",
"JJJJJJJJJJJJJJJJJJJCzk7kCJPJJJJLJJJJJJJJJJJJAJLJJJJJJHJJJJJJJJJJJJJJJJJ",
"JJJJJJJJJJJJJJJJJJJJBxBBHJJLJLJJJJJJJJJJJJJJKJJJPJJJJJJJJJJJJJJJJJJJJJJ",
"JJJJJJJJJJJJJJJJJJJJJHHJJJJJJJJJJJJJJJJJJJJJJJKJJJJJJJJJJJJJJJJJJJJJJJJ",
"JJJJJJJJJJJJJJJJJJJJKJJJJJJJJJJJJJJJJJJJJJJJJJJJJJJJJJJJJJJJJJJJJJJJJJJ"
};
