/* XPM */
static char *result[] = {
/* columns rows colors chars-per-pixel */
"68 68 200 2 ",
"   c #000004",
".  c #140405",
"X  c #1C0304",
"o  c #150905",
"O  c #1F0906",
"+  c #240204",
"@  c #2D0302",
"#  c #220B05",
"$  c #2C0608",
"%  c #330B03",
"&  c #360700",
"*  c #231307",
"=  c #2B1305",
"-  c #26130A",
";  c #241A0C",
":  c #2D1A0A",
">  c #321405",
",  c #3C1B05",
"<  c #311A06",
"1  c #251015",
"2  c #26290F",
"3  c #282A0F",
"4  c #3C2106",
"5  c #362209",
"6  c #292514",
"7  c #282A16",
"8  c #2A2D19",
"9  c #243414",
"0  c #2A3316",
"q  c #243B16",
"w  c #2A3915",
"e  c #2A3419",
"r  c #2A3B1A",
"t  c #383E15",
"y  c #411C06",
"u  c #452406",
"i  c #482506",
"p  c #4B2B07",
"a  c #442E09",
"s  c #4D2C08",
"d  c #452607",
"f  c #502F08",
"g  c #443009",
"h  c #4F370A",
"j  c #533409",
"k  c #543B0A",
"l  c #5B3D0A",
"z  c #553707",
"x  c #145700",
"c  c #2B4F0F",
"v  c #2C5A0B",
"b  c #275407",
"n  c #2A4415",
"m  c #2B4C16",
"M  c #2C431A",
"N  c #2D4C1A",
"B  c #344215",
"V  c #2C5315",
"C  c #2D5C15",
"Z  c #2E531A",
"A  c #2E5A19",
"S  c #30541C",
"D  c #325C1C",
"F  c #305D17",
"G  c #2E660B",
"H  c #2E6A0E",
"J  c #296903",
"K  c #326F0F",
"L  c #32720E",
"P  c #357C0F",
"I  c #2E6214",
"U  c #2F6D12",
"Y  c #2E611A",
"T  c #2A691E",
"R  c #306516",
"E  c #316D14",
"W  c #32641B",
"Q  c #336B1B",
"!  c #2F7012",
"~  c #327414",
"^  c #347A16",
"/  c #35731B",
"(  c #38741F",
")  c #357D1A",
"_  c #397C1C",
"`  c #387E17",
"'  c #346420",
"]  c #366E21",
"[  c #347324",
"{  c #387320",
"}  c #367924",
"|  c #3A7C21",
" . c #397D2D",
".. c #5D410A",
"X. c #5E4811",
"o. c #63440B",
"O. c #68470C",
"+. c #67480D",
"@. c #6B4C0D",
"#. c #704E0D",
"$. c #6F500E",
"%. c #71520E",
"&. c #378804",
"*. c #389607",
"=. c #368116",
"-. c #3A8316",
";. c #36831B",
":. c #3A841B",
">. c #368B1C",
",. c #3C8B1D",
"<. c #3C8A17",
"1. c #3E921E",
"2. c #379F1A",
"3. c #3C9E1C",
"4. c #3C9D11",
"5. c #3DA41D",
"6. c #39A215",
"7. c #368322",
"8. c #3C8422",
"9. c #378B20",
"0. c #3D8D21",
"q. c #398629",
"w. c #3C8C2B",
"e. c #3C9222",
"r. c #3D9A26",
"t. c #3D942A",
"y. c #3D9D29",
"u. c #3F8D34",
"i. c #3EA625",
"p. c #3DAA24",
"a. c #3EA32A",
"s. c #3FAC29",
"d. c #41951E",
"f. c #419C1E",
"g. c #418C23",
"h. c #419522",
"j. c #449C25",
"k. c #439D29",
"l. c #419C33",
"z. c #489F30",
"x. c #449536",
"c. c #44A226",
"v. c #44A42B",
"b. c #48A32B",
"n. c #43AB2D",
"m. c #46A729",
"M. c #42B12E",
"N. c #43A333",
"B. c #49A532",
"V. c #44AE31",
"C. c #49AB35",
"Z. c #46AB3B",
"A. c #4AAD3C",
"S. c #44B333",
"D. c #49B237",
"F. c #46B936",
"G. c #47B639",
"H. c #4AB53B",
"J. c #47B939",
"K. c #49BA3C",
"L. c #48BA35",
"P. c #4BC13E",
"I. c #53AC41",
"U. c #4CB342",
"Y. c #4DBC42",
"T. c #4FBC48",
"R. c #50BD45",
"E. c #54BF4A",
"W. c #57B84A",
"Q. c #4EC145",
"!. c #4FC348",
"~. c #50C147",
"^. c #52C54B",
"/. c #53C94E",
"(. c #58C34F",
"). c #5DC353",
"_. c #55CA50",
"`. c #59CB54",
"'. c #5FCD59",
"]. c #63C458",
"[. c #64CB5C",
"{. c #68CF5F",
"}. c #67CF60",
"|. c #6BCD62",
" X c #6CC664",
".X c #71CC68",
"XX c #70CA65",
"oX c #67D462",
"OX c #6BD265",
"+X c #6FD468",
"@X c #72D36B",
"#X c #73DA6D",
"$X c #76DD71",
"%X c #7ADD74",
"&X c #7BE076",
"*X c #7EE279",
"=X c #81E47D",
"-X c #86E982",
";X c #84E780",
":X c None",
/* pixels */
":X:X:X:X:X:X:X:X:X:X:X:X:X:X:X:X:X:X:X:X:X:X:X:X:X:X:X:X:X:X:X:X~ ~ :X:X:X:X:X:X:X:X:X:X:X:X:X:X:X:X:X:X:X:X:X:X:X:X:X:X:X:X:X:X:X:X:X:X",
":X:X:X:X:X:X:X:X:X:X:X:X:X:X:X:X:X:X:X:X:X:X:X:X:X:X:X:X:X:X:X:X) ^ :X:X:X:X:X:X:X:X:X:X:X:X:X:X:X:X:X:X:X:X:X:X:X:X:X:X:X:X:X:X:X:X:X:X",
":X:X:X:X:X:X:X:X:X:X:X:X:X:X:X:X:X:X:X:X:X:X~ L E :X:X:X:X:XE ^ g.,.^ H U U :X:X:XH H H E U :X:X:X:X:X:X:X:X:X:X:X:X:X:X:X:X:X:X:X:X:X:X",
":X:X:X:X:X:X:X:X:X:X:X:X:X:X:X:X:X:X:X:X:X~ :.1.=.^ :X:X:X:X^ d.c.j.,.=.<.;.:X:X^ >.,.>.<.<.^ :X:X:X:X:X:X:X:X:X:X:X:X:X:X:X:X:X:X:X:X:X",
":X:X:X:X:X:X:X:X:X:X:X:X:X:X:X:X:X:X:X:X~ ` d.5.6.>.U x x J &.4.5.3.*.&.d.,.^ L >.n.n.i.c.e.:.E :X:X:X:X:X:X:X:X:X:X:X:X:X:X:X:X:X:X:X:X",
":X:X:X:X:X:X:X:X:X:X:X:X:X:X:X:X:X:X:X^ >.d.b.D.K.a.;.) g.x.z.C.H.H.A.b.c.j.<.:.a.F.F.S.M.c.h.,.^ :X:X:X:X:X:X:X:X:X:X:X:X:X:X:X:X:X:X:X",
":X:X:X:X:X:X:X:X:X:X:X:X:X:X:X:X:X:X! ,.m.M.K.oX+XW.5.I. X.X X}.OX|.|.].H.6.3.n.D.Q.Q.~.J.n.s.p.e.! :X:X:X:X:X:X:X:X:X:X:X:X:X:X:X:X:X:X",
":X:X:X:X:X:X:X:X:X:X:X:X:X:X:X:X:XH 1.n.F.P._.$X*X}.G.).%X-X=X=X=X=X-X%X).s.s.S.Q././.^.Q.D.F.s.n.0.~ :X:X:X:X:X:X:X:X:X:X:X:X:X:X:X:X:X",
":X:X:X:X:X:X:X:X:X:X:X:X:X:X:X:X^ >.n.J.~.oX#X+X|.{.{.{.oX$X;X;X=X=X-X=X#X].R.S.Q././.Q.Y.J.Q.Q.K.n.>.! :X:X:X:X:X:X:X:X:X:X:X:X:X:X:X:X",
":X:X:X:X:X:X:X:X:X:X:X:X:X:X:X~ >.n.F.K.`.&X*X].S.{.*XOXG.).&X;X=X=X=X=X=X%X).M.K./.K.S.K.!././.Q.J.s.1.~ :X:X:X:X:X:X:X:X:X:X:X:X:X:X:X",
":X:X:X:X:X:X:X:X:X:X:X:X:X:XK -.m.J.Q./._.OXOXE.J.+X-X.Xv.n.].#X=X=X@XOX=X=X{.K.H.H.V.M.(.+XoX`./.Q.K.M.,.) :X:X:X:X:X:X:X:X:X:X:X:X:X:X",
":X:X:X:X:X:X:X:X:X:X:X:X:X~ -.d.C.Q./._./.Y.G.K./.#X=XXXb.*.n.'.&X%XW.R.$X*XoXQ.V.j.3.S.}.*X%X`.!./.!.J.n.>.~ :X:X:X:X:X:X:X:X:X:X:X:X:X",
":X:X:X:X:X:X:X:X:X:X:X:X^ >.c.c.C.H.R.~.Q.s.p.K./.oX+X].A.n.n.(.OX}.Y.K.{.+X'.Q.V.j.i.S.E..X|.R.!././.J.s.r.~ :X:X:X:X:X:X:X:X:X:X:X:X:X",
":X:X:X:X:X:X:X:X:X~ ~ L 9.n.M.S.n.v.v.C.F.M.S.Q./.R.U.Y.R./.!.!.H.R.Q./._./.Y.S.S.V.n.S.C.B.B.V.J././.J.a.e.L :X:X:X:X:X:X:X:X:X:X:X:X:X",
":X:X:X:X:X:X:X:X) ,.1.e.n.J.P.K.D.m.r.c.n.F.K.Y.T.J.S.K._._.^.K.v.p.K.(.'.'.T.M.S.K.J.S.n.c.n.D.K.Y.Q.P.S.c.>.~ :X:X:X:X:X:X:X:X:X:X:X:X",
":X:X:X:X:X:X~ ^ ,.j.v.n.J.Q././.Q.F.n.f.c.U.(.A.k.D.Q././.^.J.n.f.f.p.E.$X%X).M.K.!.K.M.G.R.^.^.T.J.J.Q.^.D.i.>.U :X:X:X:X:X:X:X:X:X:X:X",
":X:X:X:X:X:X:X^ :.j.c.n.Y./._./.Y.S.m.v.C.T.!.C.j.A./._.^.Y.J.V.C.v.n.~.@X@XE.S.Y.(.T.J.K.!.(./.!.J.K.Q.~.Q.F.n.,.! :X:X:X:X:X:X:X:X:X:X",
":X:X:X:X:X:X:X:X^ :.1.j.H././.K.n.j.v.U.~.Y.F.n.n.Y./.!.J.K.Q.!.R.~.Q.~.W.I.A.S.Q././.^.Y.J.Y././.~.Y.K.J.Q.Q.J.s.9.~ :X:X:X:X:X:X:X:X:X",
":X:X:X:X:X:X:X:X:X^ <.h.C.~.~.J.S.v.B.T.^.K.S.S.J.Y.!.H.n.S.!././._.(.T.b.d.i.S.Y./._./.Y.F.J.T././.^.S.S.^./.Q.F.i.:.E :X:X:X:X:X:X:X:X",
":X:X:X:X:X:X:X:X:X~ <.h.b.G.Y.Q.Q.R.T.C.B.K.Q.!.Q.T.K.n.k.m.G.T././.Y.G.Y.Y.S.V.Y./.!.K.K.T.Y.J.Y.(.^.J.F.~./.Q.S.m.j.:.^ :X:X:X:X:X:X:X",
":X:X:X:X:X:X:X:X~ ^ d.k.n.V.K.^._./.!.B.v.U._._.~.Y.F.n.j.v.V.K.!.Q.S.S.!./.Y.F.Y.!.K.S.K.(.!.F.J.Q.~.F.S.R.^.K.n.v.j.<.^ E :X:X:X:X:X:X",
":X:X:X:X:X:X:XE ` 1.c.n.n.s.K././.T.K.H.R.^./.^.K.K.Y.K.v.S.Y.Y.Y.F.V.S.Q././.Q.Q.S.n.r.H._./.Q.Y.K.J.S.S.C.C.b.c.h.:.) :X:X:X:X:X:X:X:X",
":X:X:X:X:X:X! ;.h.j.n.V.V.S.K.!.!.F.F.Q._.(.^.G.S.Y./.Y.F.K./.!.F.M.S.J.Q.(././.K.V.c.j.A.~._./.Q.J.M.S.V.j.j.j.j.e.) E :X:X:X:X:X:X:X:X",
":X:X:X:X:XS ) h.c.n.m.n.n.S.V.N.y.n.J.~._.R.H.H.Y./._.Y.S.H./.!.S.n.K.T././.!.K.Y.Y.Y.Y.H.K.T././.T.K.J.S.j.d.v.n.j.<.:.~ :X:X:X:X:X:X:X",
":X:X:X:Xe D g.j.C.M.n.j.v.S.a.) ) a.K.!.^.B.j.H._._./.Y.S.K./.T.G.S.Q././.^.G.S.Y./././.K.S.J./._./.!.J.s.c.j.C.V.n.j.d.^ ! :X:X:X:X:X:X",
":X:X:X:Xr W g.j.H.~.C.g.,.v.j.-.0.s.J.K.A.e.:.A._.(.Y.K.Q.!./.!.Y.!./.(.Y.A.n.S.Q._./.Q.J.S.K.~./.!.U.y.e.v.n.V.S.M.n.j.>.H :X:X:X:X:X:X",
":X:X:X:Xe D g.j.Y./.A.) ^ j.j.j.v.V.V.v.h.^ _ Z./.Q.F.K.~._./.(./././.^.C.j.v.F.Q.~.Y.S.n.M.K./.!.P.a.;.) a.G.S.S.S.M.c.^ H :X:X:X:X:X:X",
":X:X:X:X:XS W 8.z.A.l.9.<.h.j.v.n.n.v.m.j.<.7.Z.Y.K.V.S.Y.!./.^.U.T./.~.V.j.c.n.T./.Q.V.n.v.D.Y.K.a.e.9.e.e.a.H.Y.K.S.y.Q c :X:X:X:X:X:X",
":X:X:X:X:X:XN D Q ) 0.h.j.j.c.V.n.k.k.n.V.v.j.v.S.S.S.S.S.K./.R.z.B.^./.K.n.j.c.U./.~.S.v.j.v.F.a.;.;.a.n.;.;.U./.Q.S.w.D 6 :X:X:X:X:X:X",
":X:X:X:X:X:X:XM V G -.j.b.j.n.S.S.j.j.n.S.n.v.v.n.M.S.J.J.Y.Y.A.k.v.H.U.J.n.v.m.Z.A.G.n.n.c.m.m.y.;.0.V.S.,.:.l.H.G.n.0.A n :X:X:X:X:X:X",
":X:X:X:X:X:Xr N I U <.j.m.n.S.S.n.j.j.n.M.S.n.c.j.m.S.Y./.T.b.c.n.V.v.v.n.S.S.S.t.;.0.k.n.V.n.j.j.h.k.V.S.c.h.7.9.h.c.0.E A Z M :X:X:X:X",
":X:X:X:X:X:Xm F / ;.:.8.k.K.K.F.n.v.b.D.K.J.F.m.j.e.a.G.T.K.k.c.S.n.j.j.S.K.V.a.,.~ -.h.m.S.V.v.j.j.v.n.M.C.j.^ v _ ,.,.,._ W r :X:X:X:X",
":X:X:X:XM S C E :.h._ D u.^.~.J.n.j.v.T./.K.S.m.h.:.) y.G.F.S.M.S.n.j.v.R.^.l.^ -.h.h.j.v.V.S.S.n.j.k.n.S.F.n.} n C ^ 1.j.g.D r :X:X:X:X",
":X:X:X:Xr D / ;.j.j.:.m  .U.Q.S.v.e.j.U.Y.G.a.v.v.9.;.e.v.M.S.F.J.S.r.j.U.R.l.=.0.v.c.j.m.S.S.S.n.j.k.S.J.S.a.7.W E _ :.h.| S :X:X:X:X:X",
":X:X:X:Xw D | h.j.j.0.E [ q.t.m.j.:.^ q.w.7.,.a.M.n.a.j.c.v.S.K./.T.w.=.k.C.v.i.s.V.m.j.v.S.F.S.v.j.B.~.^.l.:.0.g.h.h.g.Q D :X:X:X:X:X:X",
":X:X:X:Xe D 0.c.c.h.:.^ L L -.1.e.;.^ L L H ~ w.n.J.J.V.j.j.m.G.R.U.w.L -.j.V.K.J.S.n.h.j.n.V.J.S.j.B.R.U.q.G -.j.v.j.| M 1 :X:X:X:X:X:X",
":X:X:X:X8 ' k.S.m.:.~ ^ ;.,.g._ :.,.h.d.,.^ E I [ U.T.Y.j.j.b.j.t.w.0.,.P 0.H./.Q.S.r.>.) ;.N.R.Y.v.e.k.w.' m E :.j.k.| N :X:X:X:X:X:X:X",
":X:X:X:X7 D t.V.r.~ H E :.j.h.^ ) h.j.j.h.,.^ v Z x.R.U.k.d.j.g.^ ) j.j.^ / Z.^.Y.S.e.! J E y.T.R.B.1.P G A D Q ^ g.j.8.D M :X:X:X:X:X:X",
":X:X:X:X:X:X] w.9.^ I V W ) ,.0.h.j.h.g.:.,.,.g.8.w.l.N.v.h.:.;.e.a.n.v.{ A  .y.V.S.r.~ ~ :.h.l.B.V.n.=.G ) w.g.,.:.) ^ E W S :X:X:X:X:X",
":X:X:X:X:X:X:XM R ! Q Z A ~ :.h.j.j.j._ ~ g.j.k.j.<.L ) h.0.~ 9.V.J.F.n.[ n V ^ y.V.r.^ g.j.g.E ;.s.N.7.^ e.j.j.j.,.^ ^ ~ R S M :X:X:X:X",
":X:X:X:X:X:X:X:Xm W / 8.g.0.,.,.h.n.n.;.U ,.v.b.j.:.K E ( Q U >.S.F.S.k./ I ~ <.0.e.e.0.h.b.d.L ~ 9.e.h.,.:.,.h.c.m.a.9.Q V m :X:X:X:X:X",
":X:X:X:X:X:X:X:Xe N | h.j.j.0.~ ;.n.V.9.~ 0.j.j.j.,.~ R m Z E 0.s.V.v.h.) ) h.j.:.~ :.j.j.k.0.^ ~ E ;.h.h.:.~ ,.j.n.S.w.S 6 :X:X:X:X:X:X",
":X:X:X:X:X:X:XZ A W ) 1.g.| / U / e.r.e.0.-.,.v.n.r.^ I A Q :.e.e.e.,.:.<.0.j.j.:.~ ,.k.h.| Q ~ ^ ;.d.h.j.g.9.,.,.j.t. .N :X:X:X:X:X:X:X",
":X:X:X:X:X:XM N Q ~ ^ ~ Q Z A ~ ^ ! ) e.h.:.^ y.S.r.^ H ~ :.h.h.;.~ ~ ^ g.j.k.h.:.^ ,.j.8.Z V E :.h.k.j.j.j.h.<.^ R S M :X:X:X:X:X:X:X:X",
":X:X:X:X:X:X:XN F Q / Q C A I :.:.:.-.,.g.:.:.r.y.7.R / ,.h.j.h.0.) E ^ h.b.n.m.,.~ ~ | | { | ,.,.,.h.v.n.j.,._ R n 7 :X:X:X:X:X:X:X:X:X",
":X:X:X:X:X:X:X:Xm S S S C ~ ;.h.j.j.h.:.^ e.h.,.~ A N { h.j.j.j.j.0.) ^ g.c.V.S.e.E V Z { h.j.j.,.^ ;.n.S.e.~ R S :X:X:X:X:X:X:X:X:X:X:X",
":X:X:X:X:X:X:X:X:XM r M V R :.v.B.m.j.) ~ h.b.d.) R A / 0.j.v.c.h.,.:.:.,.e.j.a.r.;./ ' | 0.h.g.q.w.e.a.y.;.C m M :X:X:X:X:X:X:X:X:X:X:X",
":X:X:X:X:X:X:X:X:X:X:X:X:XN 8.n.D.m.h.^ ^ g.j.j.h.:.~ E ~ e.V.n.;.^ h.h.:.^ ^ ;.0.j.j.h.,.) R m } s.s.e./ Q Z :X:X:X:X:X:X:X:X:X:X:X:X:X",
":X:X:X:X:X:X:X:X:X:X:X:X:Xr  .k.n.t.8./ Q :.j.c.m.e.^ ~ ) e.a.y.:.:.j.j.) I C I :.h.j.c.h.:.E Z [ y.v.| C N M :X:X:X:X:X:X:X:X:X:X:X:X:X",
":X:X:X:X:X:X:X:X:X:X:X:X:XN Q ;.;.{ W D D E ;.v.S.r.^ :.j.e.;.;.h.j.b.h.{ m m A E :.d.k.c.h.,.~ E ] ] ' S :X:X:X:X:X:X:X:X:X:X:X:X:X:X:X",
":X:X:X:X:X:X:X:X:X:X:X:X:XN A R Y m e r m C ~ t.s.e.~ ) h.0.` _ 0.h.r.8.D w 0 M V E :.h.h.h.e.^ I n 8 M N :X:X:X:X:X:X:X:X:X:X:X:X:X:X:X",
":X:X:X:X:X:X:X:X:X:X:X:X:X:XZ D Z :X:X:X:XN W :.9./ W D W _ d.g.{ W ] A t : - 2 n A ' ' _ :._ Q m :X:X:X:X:X:X:X:X:X:X:X:X:X:X:X:X:X:X:X",
":X:X:X:X:X:X:X:X:X:X:X:X:X:X:XN N :X:X:X:Xw m I Q C N 8 0 Q h.w.S 6 w w 5 & @ # 9 M M r A U Y Z r :X:X:X:X:X:X:X:X:X:X:X:X:X:X:X:X:X:X:X",
":X:X:X:X:X:X:X:X:X:X:X:X:X:X:X:X:X:X:X:X:X:Xq Z F A :X:X; N T Y w @ * : , y % X * 6 6 :XZ A A :X:X:X:X:X:X:X:X:X:X:X:X:X:X:X:X:X:X:X:X:X",
":X:X:X:X:X:X:X:X:X:X:X:X:X:X:X:X:X:X:X:X:X:X:Xq N :X:X:XO 7 B B , & , u u i d 4 > # :X:X:XN N :X:X:X:X:X:X:X:X:X:X:X:X:X:X:X:X:X:X:X:X:X",
":X:X:X:X:X:X:X:X:X:X:X:X:X:X:X:X:X:X:X:X:X:X:X:X9 2 # . X a X.o.i u l o.j d l ..s #   :X:X9 :X:X:X:X:X:X:X:X:X:X:X:X:X:X:X:X:X:X:X:X:X:X",
":X:X:X:X:X:X:X:X:X:X:X:X:X:X:X:X:X:X:X:X:X:X:X:X:Xo # = > z @.+.s f +.@.j i +.%.k *   :X:X:X:X:X:X:X:X:X:X:X:X:X:X:X:X:X:X:X:X:X:X:X:X:X",
":X:X:X:X:X:X:X:X:X:X:X:X:X:X:X:X:X:X:X:X:X:X:X:X:X  o a ..o.l f u p l l s f @.%.k o   :X:X:X:X:X:X:X:X:X:X:X:X:X:X:X:X:X:X:X:X:X:X:X:X:X",
":X:X:X:X:X:X:X:X:X:X:X:X:X:X:X:X:X:X:X:X:X:X:X:X:Xo * k $.o.4 % u p i u y s +.$.k ; . :X:X:X:X:X:X:X:X:X:X:X:X:X:X:X:X:X:X:X:X:X:X:X:X:X",
":X:X:X:X:X:X:X:X:X:X:X:X:X:X:X:X:X:X:X:X:X:X:X  * g l +.+.j X : k l i > > u k o.o...g *   :X:X:X:X:X:X:X:X:X:X:X:X:X:X:X:X:X:X:X:X:X:X:X",
":X:X:X:X:X:X:X:X:X:X:X:X:X:X:X:X:X:X:X:X:X:X:X  * k %.+.s > . a +.@.s + # - , f O.%.l *   :X:X:X:X:X:X:X:X:X:X:X:X:X:X:X:X:X:X:X:X:X:X:X",
":X:X:X:X:X:X:X:X:X:X:X:X:X:X:X:X:X:X:X:X:X:X:X  * k @.l , 4 k o.+.o.i + X o + , ..@.k *   :X:X:X:X:X:X:X:X:X:X:X:X:X:X:X:X:X:X:X:X:X:X:X",
":X:X:X:X:X:X:X:X:X:X:X:X:X:X:X:X:X:X:X:X:X:X:X:X:X:X:X:X:X..$.$.l u , > # :X:X:X:X:X:X:X:X:X:X:X:X:X:X:X:X:X:X:X:X:X:X:X:X:X:X:X:X:X:X:X",
":X:X:X:X:X:X:X:X:X:X:X:X:X:X:X:X:X:X:X:X:X:X:X:X:X:X:X:X:X:X@.o.i @ > = :X:X:X:X:X:X:X:X:X:X:X:X:X:X:X:X:X:X:X:X:X:X:X:X:X:X:X:X:X:X:X:X",
":X:X:X:X:X:X:X:X:X:X:X:X:X:X:X:X:X:X:X:X:X:X:X:X:X:X:X:X:X:X:X:X:X:X:X:X:X:X:X:X:X:X:X:X:X:X:X:X:X:X:X:X:X:X:X:X:X:X:X:X:X:X:X:X:X:X:X:X",
":X:X:X:X:X:X:X:X:X:X:X:X:X:X:X:X:X:X:X:X:X:X:X:X:X:X:X:X:X:X:X:X:X:X:X:X:X:X:X:X:X:X:X:X:X:X:X:X:X:X:X:X:X:X:X:X:X:X:X:X:X:X:X:X:X:X:X:X",
":X:X:X:X:X:X:X:X:X:X:X:X:X:X:X:X:X:X:X:X:X:X:X:X:X:X:X:X:X:X:X:X:X:X:X:X:X:X:X:X:X:X:X:X:X:X:X:X:X:X:X:X:X:X:X:X:X:X:X:X:X:X:X:X:X:X:X:X",
":X:X:X:X:X:X:X:X:X:X:X:X:X:X:X:X:X:X:X:X:X:X:X:X:X:X:X:X:X:X:X:X:X:X:X:X:X:X:X:X:X:X:X:X:X:X:X:X:X:X:X:X:X:X:X:X:X:X:X:X:X:X:X:X:X:X:X:X"
};
